<svg width="10" height="10" viewBox="0 0 10 10" fill="none" xmlns="http://www.w3.org/2000/svg">
<g id="Group">
<g id="Layer 41">
<path id="Vector" d="M9.41336 6.30431C9.47214 6.24732 9.55219 6.21504 9.63597 6.21504C9.71974 6.21504 9.79979 6.24732 9.85857 6.30431C9.9173 6.36125 9.95 6.43814 9.95 6.51798V7.72322C9.94953 8.18063 9.76192 8.61951 9.42782 8.94343C9.09366 9.26741 8.64026 9.44988 8.16704 9.45033H1.83296C1.35974 9.44988 0.90634 9.26741 0.572183 8.94343C0.238078 8.61951 0.0504678 8.18063 0.05 7.72322L0.05 6.51798C0.05 6.43814 0.0826974 6.36125 0.141427 6.30431C0.200209 6.24732 0.280256 6.21504 0.364033 6.21504C0.447811 6.21504 0.527857 6.24732 0.58664 6.30431C0.645369 6.36125 0.678067 6.43814 0.678067 6.51798V7.72327C0.678067 8.02114 0.800126 8.30648 1.01686 8.51661C1.23355 8.72669 1.52712 8.84445 1.83291 8.84445H8.16709C8.47288 8.84445 8.76645 8.72669 8.98314 8.51661C9.19987 8.30648 9.32193 8.02114 9.32193 7.72327V6.51798C9.32193 6.43814 9.35463 6.36125 9.41336 6.30431Z" fill="#929A96" stroke="white" stroke-width="0.1"/>
<path id="Vector_2" d="M4.77704 7.15954L4.77689 7.1594L2.70008 5.14587C2.64131 5.08889 2.60859 5.01195 2.60859 4.93206C2.60859 4.85217 2.64131 4.77523 2.70008 4.71825C2.7589 4.66122 2.839 4.62892 2.92283 4.62892C3.00666 4.62892 3.08676 4.66122 3.14558 4.71825L4.60171 6.13002L4.68652 6.21224V6.09412V0.852941C4.68652 0.773104 4.71921 0.696212 4.77794 0.639272C4.83673 0.582281 4.91677 0.55 5.00055 0.55C5.08433 0.55 5.16438 0.582281 5.22316 0.639272C5.28189 0.696212 5.31458 0.773104 5.31458 0.852941V6.09941V6.21753L5.39939 6.13531L6.85362 4.72539C6.91382 4.67869 6.98992 4.65492 7.06742 4.65898C7.14576 4.66309 7.21943 4.6953 7.27418 4.74895C7.32889 4.80257 7.36079 4.8737 7.36414 4.94842C7.36744 5.02241 7.34254 5.09518 7.29384 5.15283L5.22421 7.1594L5.22406 7.15954C5.19494 7.18801 5.1602 7.21069 5.12182 7.22619C5.08344 7.24169 5.04222 7.24969 5.00055 7.24969C4.95888 7.24969 4.91766 7.24169 4.87928 7.22619C4.8409 7.21069 4.80616 7.18801 4.77704 7.15954Z" fill="#929A96" stroke="white" stroke-width="0.1"/>
</g>
</g>
</svg>
