<svg width="10" height="10" viewBox="0 0 10 10" fill="none" xmlns="http://www.w3.org/2000/svg">
<g id="Group">
<path id="Vector" d="M6.36341 0.121371L8.03521 1.79317L8.04986 1.80781H8.07057H8.53516C8.99217 1.80781 9.36406 2.1797 9.36406 2.63672V3.56602V3.60133L9.39735 3.61314C9.71909 3.72725 9.95 4.0345 9.95 4.39453V7.94922C9.95 8.40623 9.57811 8.77812 9.12109 8.77812H8.24219H8.19219V8.82812V9.70703C8.19219 9.84121 8.0834 9.95 7.94922 9.95H2.05078C1.9166 9.95 1.80781 9.84121 1.80781 9.70703V8.82812V8.77812H1.75781H0.878906C0.421892 8.77812 0.05 8.40623 0.05 7.94922V4.39453C0.05 4.0345 0.280914 3.72725 0.60265 3.61314L0.635938 3.60133V3.56602V2.63672C0.635938 2.1797 1.00783 1.80781 1.46484 1.80781H1.75781H1.80781V1.75781V0.292969C1.80781 0.158786 1.9166 0.05 2.05078 0.05H6.19064L6.19513 0.0502084C6.2579 0.0512165 6.31786 0.0764059 6.36251 0.120528L6.36254 0.120502L6.36341 0.121364M6.36341 0.121371C6.36376 0.121713 6.3641 0.122039 6.36436 0.12228L6.36342 0.121363L6.36341 0.121357L6.36341 0.121364M6.36341 0.121371C6.36341 0.121369 6.36341 0.121366 6.36341 0.121364M6.36341 0.121371L6.36341 0.121364M8.24219 2.29375H8.19219V2.34375V3.51562V3.56562H8.24219H8.82812H8.87813V3.51562V2.63672C8.87813 2.44756 8.72431 2.29375 8.53516 2.29375H8.24219ZM6.51973 0.964899L6.43437 0.879543V1.00025V1.75781V1.80781H6.48438H7.24193H7.36264L7.27729 1.72246L6.51973 0.964899ZM2.34375 0.535937H2.29375V0.585938V3.51562V3.56562H2.34375H7.65625H7.70625V3.51562V2.34375V2.29375H7.65625H6.19141C6.05722 2.29375 5.94844 2.18496 5.94844 2.05078V0.585938V0.535937H5.89844H2.34375ZM1.80781 2.34375V2.29375H1.75781H1.46484C1.27569 2.29375 1.12188 2.44756 1.12188 2.63672V3.51562V3.56562H1.17188H1.75781H1.80781V3.51562V2.34375ZM7.65625 9.46406H7.70625V9.41406V6.48438V6.43437H7.65625H2.34375H2.29375V6.48438V9.41406V9.46406H2.34375H7.65625ZM8.19219 8.24219V8.29219H8.24219H9.12109C9.31025 8.29219 9.46406 8.13838 9.46406 7.94922V4.39453C9.46406 4.20537 9.31025 4.05156 9.12109 4.05156H0.878906C0.689749 4.05156 0.535937 4.20537 0.535937 4.39453V7.94922C0.535937 8.13838 0.689749 8.29219 0.878906 8.29219H1.75781H1.80781V8.24219V6.48438V6.43437H1.75781H1.46484C1.33066 6.43437 1.22187 6.32559 1.22187 6.19141C1.22187 6.05722 1.33066 5.94844 1.46484 5.94844H8.53516C8.66934 5.94844 8.77812 6.05722 8.77812 6.19141C8.77812 6.32559 8.66934 6.43437 8.53516 6.43437H8.24219H8.19219V6.48438V8.24219Z" fill="#929A96" stroke="white" stroke-width="0.1"/>
<path id="Vector_2" d="M3.22266 7.17031H6.77734C6.88391 7.17031 6.97031 7.25671 6.97031 7.36328C6.97031 7.46985 6.88391 7.55625 6.77734 7.55625H3.22266C3.11609 7.55625 3.02969 7.46985 3.02969 7.36328C3.02969 7.25671 3.11609 7.17031 3.22266 7.17031ZM3.22266 8.34219H6.77734C6.88391 8.34219 6.97031 8.42859 6.97031 8.53516C6.97031 8.64172 6.88391 8.72813 6.77734 8.72813H3.22266C3.11609 8.72813 3.02969 8.64172 3.02969 8.53516C3.02969 8.42859 3.11609 8.34219 3.22266 8.34219ZM1.46484 4.7875H2.05078C2.15735 4.7875 2.24375 4.8739 2.24375 4.98047C2.24375 5.08704 2.15735 5.17344 2.05078 5.17344H1.46484C1.35828 5.17344 1.27188 5.08704 1.27188 4.98047C1.27188 4.8739 1.35828 4.7875 1.46484 4.7875Z" fill="#929A96" stroke="white" stroke-width="0.2"/>
</g>
</svg>
