<svg width="18" height="18" viewBox="0 0 18 18" fill="none" xmlns="http://www.w3.org/2000/svg">
<g id="Group">
<path id="Vector" d="M4.55466 5.66553H2.88837C2.81472 5.66553 2.74408 5.69479 2.692 5.74687C2.63992 5.79895 2.61066 5.86959 2.61066 5.94324V7.60953C2.61066 7.68318 2.63992 7.75382 2.692 7.8059C2.74408 7.85798 2.81472 7.88724 2.88837 7.88724H4.55466C4.62831 7.88724 4.69895 7.85798 4.75103 7.8059C4.80311 7.75382 4.83237 7.68318 4.83237 7.60953V5.94324C4.83237 5.86959 4.80311 5.79895 4.75103 5.74687C4.69895 5.69479 4.62831 5.66553 4.55466 5.66553ZM4.27694 7.33181H3.16609V6.22096H4.27694V7.33181ZM7.3318 5.66553H5.66551C5.59186 5.66553 5.52122 5.69479 5.46914 5.74687C5.41706 5.79895 5.3878 5.86959 5.3878 5.94324V7.60953C5.3878 7.68318 5.41706 7.75382 5.46914 7.8059C5.52122 7.85798 5.59186 7.88724 5.66551 7.88724H7.3318C7.40545 7.88724 7.47609 7.85798 7.52817 7.8059C7.58025 7.75382 7.60951 7.68318 7.60951 7.60953V5.94324C7.60951 5.86959 7.58025 5.79895 7.52817 5.74687C7.47609 5.69479 7.40545 5.66553 7.3318 5.66553ZM7.05408 7.33181H5.94323V6.22096H7.05408V7.33181ZM8.44265 7.88724H10.1089C10.1826 7.88724 10.2532 7.85798 10.3053 7.8059C10.3574 7.75382 10.3867 7.68318 10.3867 7.60953V5.94324C10.3867 5.86959 10.3574 5.79895 10.3053 5.74687C10.2532 5.69479 10.1826 5.66553 10.1089 5.66553H8.44265C8.369 5.66553 8.29836 5.69479 8.24628 5.74687C8.1942 5.79895 8.16494 5.86959 8.16494 5.94324V7.60953C8.16494 7.68318 8.1942 7.75382 8.24628 7.8059C8.29836 7.85798 8.369 7.88724 8.44265 7.88724ZM8.72037 6.22096H9.83122V7.33181H8.72037V6.22096ZM11.2198 7.88724H12.8861C12.9597 7.88724 13.0304 7.85798 13.0825 7.8059C13.1345 7.75382 13.1638 7.68318 13.1638 7.60953V5.94324C13.1638 5.86959 13.1345 5.79895 13.0825 5.74687C13.0304 5.69479 12.9597 5.66553 12.8861 5.66553H11.2198C11.1461 5.66553 11.0755 5.69479 11.0234 5.74687C10.9713 5.79895 10.9421 5.86959 10.9421 5.94324V7.60953C10.9421 7.68318 10.9713 7.75382 11.0234 7.8059C11.0755 7.85798 11.1461 7.88724 11.2198 7.88724ZM11.4975 6.22096H12.6084V7.33181H11.4975V6.22096ZM4.55466 8.44267H2.88837C2.81472 8.44267 2.74408 8.47193 2.692 8.52401C2.63992 8.57609 2.61066 8.64673 2.61066 8.72038V10.3867C2.61066 10.4603 2.63992 10.531 2.692 10.583C2.74408 10.6351 2.81472 10.6644 2.88837 10.6644H4.55466C4.62831 10.6644 4.69895 10.6351 4.75103 10.583C4.80311 10.531 4.83237 10.4603 4.83237 10.3867V8.72038C4.83237 8.64673 4.80311 8.57609 4.75103 8.52401C4.69895 8.47193 4.62831 8.44267 4.55466 8.44267ZM4.27694 10.109H3.16609V8.9981H4.27694V10.109ZM7.3318 8.44267H5.66551C5.59186 8.44267 5.52122 8.47193 5.46914 8.52401C5.41706 8.57609 5.3878 8.64673 5.3878 8.72038V10.3867C5.3878 10.4603 5.41706 10.531 5.46914 10.583C5.52122 10.6351 5.59186 10.6644 5.66551 10.6644H7.3318C7.40545 10.6644 7.47609 10.6351 7.52817 10.583C7.58025 10.531 7.60951 10.4603 7.60951 10.3867V8.72038C7.60951 8.64673 7.58025 8.57609 7.52817 8.52401C7.47609 8.47193 7.40545 8.44267 7.3318 8.44267ZM7.05408 10.109H5.94323V8.9981H7.05408V10.109ZM9.55518 10.3867C9.55518 10.313 9.52592 10.2424 9.47384 10.1903C9.42176 10.1382 9.35112 10.109 9.27746 10.109H8.72037V8.9981H9.83122V9.54381C9.83122 9.61746 9.86048 9.6881 9.91257 9.74018C9.96465 9.79226 10.0353 9.82152 10.1089 9.82152C10.1826 9.82152 10.2532 9.79226 10.3053 9.74018C10.3574 9.6881 10.3867 9.61746 10.3867 9.54381V8.72038C10.3867 8.64673 10.3574 8.57609 10.3053 8.52401C10.2532 8.47193 10.1826 8.44267 10.1089 8.44267H8.44265C8.369 8.44267 8.29836 8.47193 8.24628 8.52401C8.1942 8.57609 8.16494 8.64673 8.16494 8.72038V10.3867C8.16494 10.4603 8.1942 10.531 8.24628 10.583C8.29836 10.6351 8.369 10.6644 8.44265 10.6644H9.27746C9.35112 10.6644 9.42176 10.6351 9.47384 10.583C9.52592 10.531 9.55518 10.4603 9.55518 10.3867ZM4.55466 11.2198H2.88837C2.81472 11.2198 2.74408 11.2491 2.692 11.3012C2.63992 11.3532 2.61066 11.4239 2.61066 11.4975V13.1638C2.61066 13.2375 2.63992 13.3081 2.692 13.3602C2.74408 13.4123 2.81472 13.4415 2.88837 13.4415H4.55466C4.62831 13.4415 4.69895 13.4123 4.75103 13.3602C4.80311 13.3081 4.83237 13.2375 4.83237 13.1638V11.4975C4.83237 11.4239 4.80311 11.3532 4.75103 11.3012C4.69895 11.2491 4.62831 11.2198 4.55466 11.2198ZM4.27694 12.8861H3.16609V11.7752H4.27694V12.8861ZM7.3318 11.2198H5.66551C5.59186 11.2198 5.52122 11.2491 5.46914 11.3012C5.41706 11.3532 5.3878 11.4239 5.3878 11.4975V13.1638C5.3878 13.2375 5.41706 13.3081 5.46914 13.3602C5.52122 13.4123 5.59186 13.4415 5.66551 13.4415H7.3318C7.40545 13.4415 7.47609 13.4123 7.52817 13.3602C7.58025 13.3081 7.60951 13.2375 7.60951 13.1638V11.4975C7.60951 11.4239 7.58025 11.3532 7.52817 11.3012C7.47609 11.2491 7.40545 11.2198 7.3318 11.2198ZM7.05408 12.8861H5.94323V11.7752H7.05408V12.8861Z" fill="#51645F"/>
<path id="Vector_2" d="M15.1078 9.48115V2.6105C15.1072 2.38974 15.0192 2.17821 14.8631 2.02211C14.707 1.86601 14.4954 1.77802 14.2747 1.77736H12.8861V1.49965C12.8861 1.27868 12.7983 1.06677 12.6421 0.910526C12.4858 0.754281 12.2739 0.666504 12.053 0.666504C11.832 0.666504 11.6201 0.754281 11.4638 0.910526C11.3076 1.06677 11.2198 1.27868 11.2198 1.49965V1.77736H4.55469V1.49965C4.55469 1.27868 4.46691 1.06677 4.31066 0.910526C4.15442 0.754281 3.94251 0.666504 3.72154 0.666504C3.50058 0.666504 3.28867 0.754281 3.13242 0.910526C2.97618 1.06677 2.8884 1.27868 2.8884 1.49965V1.77736H1.49983C1.27907 1.77802 1.06754 1.86601 0.911437 2.02211C0.755335 2.17821 0.667346 2.38974 0.666687 2.6105V14.2745C0.667346 14.4953 0.755335 14.7068 0.911437 14.8629C1.06754 15.019 1.27907 15.107 1.49983 15.1076H9.48134C9.78535 15.6853 10.2208 16.1833 10.7527 16.5617C11.2845 16.9401 11.8979 17.1883 12.5432 17.2861C13.1886 17.3839 13.8479 17.3288 14.468 17.125C15.0881 16.9212 15.6517 16.5746 16.1132 16.1131C16.5748 15.6515 16.9214 15.088 17.1252 14.4678C17.3289 13.8477 17.3841 13.1884 17.2863 12.5431C17.1885 11.8977 16.9403 11.2844 16.5619 10.7525C16.1835 10.2207 15.6854 9.78516 15.1078 9.48115ZM11.7753 1.49965C11.7753 1.42599 11.8045 1.35535 11.8566 1.30327C11.9087 1.25119 11.9793 1.22193 12.053 1.22193C12.1266 1.22193 12.1973 1.25119 12.2493 1.30327C12.3014 1.35535 12.3307 1.42599 12.3307 1.49965V2.6105C12.3307 2.68416 12.3014 2.7548 12.2493 2.80688C12.1973 2.85896 12.1266 2.88822 12.053 2.88822C11.9793 2.88822 11.9087 2.85896 11.8566 2.80688C11.8045 2.7548 11.7753 2.68416 11.7753 2.6105V1.49965ZM3.44383 1.49965C3.44383 1.42599 3.47309 1.35535 3.52517 1.30327C3.57725 1.25119 3.64789 1.22193 3.72154 1.22193C3.7952 1.22193 3.86584 1.25119 3.91792 1.30327C3.97 1.35535 3.99926 1.42599 3.99926 1.49965V2.6105C3.99926 2.68416 3.97 2.7548 3.91792 2.80688C3.86584 2.85896 3.7952 2.88822 3.72154 2.88822C3.64789 2.88822 3.57725 2.85896 3.52517 2.80688C3.47309 2.7548 3.44383 2.68416 3.44383 2.6105V1.49965ZM1.22212 2.6105C1.22212 2.53685 1.25137 2.46621 1.30346 2.41413C1.35554 2.36205 1.42618 2.33279 1.49983 2.33279H2.8884V2.6105C2.8884 2.83147 2.97618 3.04338 3.13242 3.19962C3.28867 3.35587 3.50058 3.44365 3.72154 3.44365C3.94251 3.44365 4.15442 3.35587 4.31066 3.19962C4.46691 3.04338 4.55469 2.83147 4.55469 2.6105V2.33279H11.2198V2.6105C11.2198 2.83147 11.3076 3.04338 11.4638 3.19962C11.6201 3.35587 11.832 3.44365 12.053 3.44365C12.2739 3.44365 12.4858 3.35587 12.6421 3.19962C12.7983 3.04338 12.8861 2.83147 12.8861 2.6105V2.33279H14.2747C14.3483 2.33279 14.419 2.36205 14.4711 2.41413C14.5231 2.46621 14.5524 2.53685 14.5524 2.6105V3.99907H1.22212V2.6105ZM9.2425 14.5522H1.49983C1.42618 14.5522 1.35554 14.523 1.30346 14.4709C1.25137 14.4188 1.22212 14.3482 1.22212 14.2745V4.5545H14.5524V9.24232C14.1071 9.08152 13.6373 8.99884 13.1638 8.99793C12.0594 8.99925 11.0006 9.43856 10.2197 10.2195C9.43875 11.0004 8.99944 12.0592 8.99811 13.1636C8.99903 13.6371 9.08171 14.1069 9.2425 14.5522ZM13.1638 16.7739C12.4498 16.7739 11.7518 16.5622 11.1581 16.1655C10.5644 15.7688 10.1016 15.2049 9.82836 14.5452C9.5551 13.8855 9.48361 13.1596 9.62291 12.4593C9.76222 11.759 10.1061 11.1157 10.611 10.6108C11.1159 10.1059 11.7592 9.76203 12.4595 9.62273C13.1598 9.48342 13.8857 9.55492 14.5454 9.82817C15.2051 10.1014 15.769 10.5642 16.1657 11.1579C16.5624 11.7516 16.7741 12.4496 16.7741 13.1636C16.7732 14.1209 16.3926 15.0387 15.7157 15.7155C15.0388 16.3924 14.1211 16.773 13.1638 16.7739Z" fill="#51645F"/>
<path id="Vector_3" d="M15.6691 11.4916C15.6434 11.4658 15.6127 11.4453 15.579 11.4313C15.5453 11.4173 15.5092 11.4102 15.4727 11.4102C15.4362 11.4102 15.4 11.4173 15.3663 11.4313C15.3326 11.4453 15.302 11.4658 15.2762 11.4916L12.3307 14.4373L10.9561 13.0626C10.9037 13.012 10.8335 12.9841 10.7607 12.9847C10.6879 12.9853 10.6182 13.0145 10.5668 13.066C10.5153 13.1175 10.4861 13.1872 10.4854 13.26C10.4848 13.3328 10.5128 13.4029 10.5634 13.4553L12.1344 15.0264C12.1865 15.0784 12.2571 15.1077 12.3307 15.1077C12.4044 15.1077 12.475 15.0784 12.5271 15.0264L15.6691 11.8846C15.695 11.8588 15.7154 11.8282 15.7294 11.7944C15.7434 11.7607 15.7506 11.7246 15.7506 11.6881C15.7506 11.6516 15.7434 11.6155 15.7294 11.5817C15.7154 11.548 15.695 11.5174 15.6691 11.4916Z" fill="#51645F"/>
</g>
</svg>
