<svg width="18" height="14" viewBox="0 0 18 14" fill="none" xmlns="http://www.w3.org/2000/svg">
<g id="Group">
<path id="Vector" d="M17.037 1.76981C16.821 1.51215 16.5186 1.35477 16.1854 1.32668L4.44855 0.337492C4.11529 0.3094 3.79126 0.413983 3.53596 0.631921C3.28169 0.849005 3.126 1.1527 3.09729 1.48741L2.86116 3.72351H1.91829C1.22806 3.72351 0.666504 4.29032 0.666504 4.98701V12.4028C0.666504 13.0995 1.22806 13.6663 1.91829 13.6663H13.696C14.3863 13.6663 14.9478 13.0995 14.9478 12.4028V11.1999L15.3658 11.2351C15.401 11.238 15.4361 11.2395 15.4708 11.2395C16.1143 11.2395 16.6629 10.7398 16.7174 10.0811L17.3287 2.69099C17.3565 2.35463 17.2529 2.02751 17.037 1.76981ZM1.91829 4.38064H13.696C14.0273 4.38064 14.2968 4.65266 14.2968 4.98701V5.66274H1.31754V4.98701C1.31754 4.65266 1.58704 4.38064 1.91829 4.38064ZM1.31754 6.31988H14.2968V7.68307H1.31754V6.31988ZM13.696 13.0092H1.91829C1.58704 13.0092 1.31754 12.7372 1.31754 12.4028V8.3402H14.2968V12.4028C14.2968 12.7372 14.0273 13.0092 13.696 13.0092ZM16.6799 2.63628L16.0686 10.0264C16.041 10.3596 15.75 10.6081 15.4199 10.5802L14.9478 10.5404V4.98701C14.9478 4.29032 14.3863 3.72351 13.696 3.72351H3.51591L3.74504 1.55365C3.7453 1.55115 3.74553 1.54869 3.74572 1.54616C3.77329 1.21296 4.06418 0.964431 4.39439 0.992359L16.1313 1.98154C16.2912 1.99501 16.4363 2.07055 16.5399 2.19422C16.6436 2.3179 16.6933 2.47485 16.6799 2.63628Z" fill="#51645F"/>
<path id="Vector_2" d="M12.9345 9.31738H9.80159C9.62181 9.31738 9.47607 9.46448 9.47607 9.64595V11.709C9.47607 11.8905 9.62181 12.0376 9.80159 12.0376H12.9345C13.1143 12.0376 13.26 11.8905 13.26 11.709V9.64595C13.26 9.46448 13.1143 9.31738 12.9345 9.31738ZM12.609 11.3804H10.1271V9.97452H12.609V11.3804Z" fill="#51645F"/>
</g>
</svg>
