<svg width="20px" height="20px" viewBox="0 0 20 20" fill="none" xmlns="http://www.w3.org/2000/svg" transform="rotate(0) scale(1, 1)">
<g id="Group">
<path id="Vector" d="M10 0C4.47254 0 0 4.47301 0 10C0 15.5275 4.47301 20 10 20C15.5275 20 20 15.527 20 10C20 4.47254 15.527 0 10 0ZM10 18.6667C5.22121 18.6667 1.33332 14.7788 1.33332 10C1.33332 5.22117 5.22121 1.33332 10 1.33332C14.7788 1.33332 18.6667 5.22121 18.6667 10C18.6667 14.7788 14.7788 18.6667 10 18.6667Z" fill="#34AA44"/>
<path id="Vector_2" d="M15.2936 6.32533C15.0333 6.06498 14.6111 6.06498 14.3508 6.32533L8.41577 12.2604L5.64937 9.494C5.38902 9.23365 4.96687 9.23365 4.70656 9.494C4.4462 9.75435 4.4462 10.1765 4.70656 10.4368L7.94433 13.6746C8.20464 13.9349 8.62691 13.9348 8.88714 13.6746L15.2936 7.2681C15.554 7.00775 15.554 6.58568 15.2936 6.32533Z" fill="#34AA44"/>
</g>
</svg>