<svg width="20px" height="20px" viewBox="0 0 20 20" fill="none" xmlns="http://www.w3.org/2000/svg" transform="rotate(0) scale(1, 1)">
<g id="Group">
<path id="Vector" d="M9.99994 0C4.48216 0 -6.10352e-05 4.4823 -6.10352e-05 10C-6.10352e-05 15.5177 4.4822 20 9.99994 20C15.5037 20 19.9753 15.5399 19.9979 10.0414C20.0007 10.0129 20.0006 9.9841 19.9976 9.95555V9.95422C19.9726 4.45777 15.5022 0 9.99994 0ZM9.99994 0.862058C15.0518 0.862058 19.1379 4.94819 19.1379 10C19.1379 15.0518 15.0518 19.138 9.99994 19.138C4.94809 19.138 0.861997 15.0519 0.861997 10.0001C0.861997 4.94827 4.94801 0.862058 9.99994 0.862058Z" fill="#e6492d"/>
<path id="Vector_2" d="M6.80483 6.37935C6.69244 6.3807 6.58503 6.42588 6.50548 6.50527C6.33706 6.6735 6.33695 6.94644 6.50521 7.11482L6.50548 7.11509L12.8848 13.4944C13.0532 13.6627 13.326 13.6627 13.4943 13.4944C13.6627 13.3262 13.6629 13.0533 13.4946 12.8849L13.4943 12.8846L7.11503 6.50527C7.07434 6.46465 7.02593 6.43257 6.97266 6.41094C6.91938 6.38931 6.86232 6.37855 6.80483 6.37931V6.37935Z" fill="#e6492d"/>
<path id="Vector_3" d="M13.1842 6.37935C13.0718 6.38069 12.9644 6.42587 12.8848 6.50527L6.50548 12.8846C6.33706 13.0528 6.33695 13.3258 6.50521 13.4942L6.50548 13.4944C6.67382 13.6627 6.94665 13.6627 7.11499 13.4944L13.4943 7.11509C13.6627 6.94687 13.6629 6.67393 13.4946 6.50551L13.4943 6.50527C13.4536 6.46465 13.4052 6.43258 13.352 6.41095C13.2987 6.38932 13.2417 6.37856 13.1842 6.37931V6.37935Z" fill="#e6492d"/>
</g>
</svg>