<svg width="21" height="16" viewBox="0 0 21 16" fill="none" xmlns="http://www.w3.org/2000/svg">
<g id="Group">
<g id="Group_2">
<path id="Vector" d="M1.35991 11.0234L0.0925836 3.11559C-0.00116402 2.5316 0.691874 2.13294 1.18422 2.4876L5.13273 5.3302C5.23536 5.40401 5.35259 5.45696 5.47725 5.48583C5.60192 5.51469 5.7314 5.51887 5.8578 5.49809C5.9842 5.47732 6.10486 5.43203 6.21242 5.365C6.31998 5.29796 6.41218 5.21058 6.48339 5.1082L9.77081 0.37499C10.118 -0.124997 10.8833 -0.124997 11.2305 0.37499L14.5179 5.1082C14.5891 5.21058 14.6813 5.29796 14.7889 5.365C14.8964 5.43203 15.0171 5.47732 15.1435 5.49809C15.2699 5.51887 15.3994 5.51469 15.524 5.48583C15.6487 5.45696 15.7659 5.40401 15.8686 5.3302L19.8171 2.4876C20.3101 2.13294 21.0025 2.5316 20.9087 3.11559L19.6414 11.0234H1.35991ZM18.6879 15.4113H2.31336C2.18815 15.4113 2.06417 15.3876 1.94849 15.3416C1.83281 15.2956 1.72771 15.2282 1.63917 15.1432C1.46036 14.9715 1.35991 14.7387 1.35991 14.496V12.486H19.6414V14.496C19.6414 15.0013 19.2143 15.4113 18.6879 15.4113Z" fill="#F6AB2F"/>
</g>
</g>
</svg>
