<svg width="19" height="20" viewBox="0 0 19 20" fill="none" xmlns="http://www.w3.org/2000/svg">
<g id="Delete">
<path id="Stroke 1" d="M16.325 7.4682C16.325 7.4682 15.782 14.2032 15.467 17.0402C15.317 18.3952 14.48 19.1892 13.109 19.2142C10.5 19.2612 7.88803 19.2642 5.28003 19.2092C3.96103 19.1822 3.13803 18.3782 2.99103 17.0472C2.67403 14.1852 2.13403 7.4682 2.13403 7.4682" stroke="#E6492D" stroke-linecap="round" stroke-linejoin="round"/>
<path id="Stroke 3" d="M17.7082 4.23969H0.750244" stroke="#E6492D" stroke-linecap="round" stroke-linejoin="round"/>
<path id="Stroke 5" d="M14.4406 4.23967C13.6556 4.23967 12.9796 3.68467 12.8256 2.91567L12.5826 1.69967C12.4326 1.13867 11.9246 0.750671 11.3456 0.750671H7.11258C6.53358 0.750671 6.02558 1.13867 5.87558 1.69967L5.63258 2.91567C5.47858 3.68467 4.80258 4.23967 4.01758 4.23967" stroke="#E6492D" stroke-linecap="round" stroke-linejoin="round"/>
</g>
</svg>
