<svg width="18" height="18" viewBox="0 0 18 18" fill="none" xmlns="http://www.w3.org/2000/svg">
<g id="Group">
<path id="Vector" fill-rule="evenodd" clip-rule="evenodd" d="M12.1011 11.4507C12.1017 11.4622 12.1017 11.4733 12.1009 11.4848C12.0642 11.9873 11.6161 12.3223 11.0137 12.401V12.5929C11.0137 12.7323 10.9004 12.8455 10.7609 12.8455C10.6213 12.8455 10.508 12.7323 10.508 12.5929V12.4044C10.1808 12.3738 9.86557 12.2906 9.56821 12.1555C9.53796 12.1418 9.51071 12.1223 9.48802 12.0981C9.46533 12.0739 9.44765 12.0455 9.43599 12.0144C9.42433 11.9833 9.41893 11.9503 9.42009 11.9172C9.42125 11.884 9.42895 11.8514 9.44274 11.8212C9.45647 11.791 9.47603 11.7638 9.5003 11.7412C9.52456 11.7185 9.55306 11.7009 9.58417 11.6892C9.61527 11.6776 9.64836 11.6722 9.68155 11.6733C9.71475 11.6745 9.74739 11.6822 9.77761 11.6959C10.196 11.886 10.8205 12.0071 11.27 11.8148C11.5322 11.7012 11.5842 11.5642 11.5948 11.4657C11.585 11.3704 11.5339 11.2372 11.2683 11.1178C10.9025 10.9604 10.5201 11.0837 10.0635 10.8804C9.55947 10.6479 9.44422 10.3162 9.43633 10.0787C9.43611 10.0717 9.43633 10.0647 9.43673 10.0577C9.44953 9.80701 9.56987 9.4649 10.0711 9.25677C10.2053 9.1989 10.3516 9.15912 10.5079 9.13804V8.94402C10.5079 8.80467 10.6213 8.69147 10.7608 8.69147C10.9003 8.69147 11.0136 8.80463 11.0136 8.94402V9.13403C11.3591 9.16615 11.668 9.24848 11.9517 9.38316C11.9817 9.3974 12.0086 9.4174 12.0309 9.44201C12.0531 9.46663 12.0703 9.49538 12.0814 9.52662C12.0925 9.55787 12.0974 9.591 12.0957 9.62412C12.094 9.65724 12.0858 9.6897 12.0715 9.71965C12.0573 9.7496 12.0373 9.77646 12.0126 9.79868C11.988 9.82091 11.9592 9.83806 11.9279 9.84918C11.8966 9.86029 11.8635 9.86514 11.8303 9.86345C11.7972 9.86175 11.7647 9.85356 11.7347 9.83932C11.4535 9.70593 11.1367 9.63572 10.7665 9.62485C10.4643 9.62043 9.9456 9.76645 9.94239 10.073C9.94538 10.1332 9.96902 10.2792 10.2717 10.4202C10.4504 10.4943 10.6045 10.5045 10.7827 10.5162C10.9796 10.5294 11.203 10.544 11.465 10.6525C11.4669 10.6536 11.4695 10.6545 11.4714 10.6555C11.9646 10.8756 12.086 11.2097 12.1011 11.4507ZM16.819 16.3639L16.363 16.8192C16.3569 16.8251 16.3489 16.8283 16.3405 16.8283C16.3321 16.8283 16.324 16.8251 16.318 16.8192L14.7174 15.2209C14.7057 15.2092 14.7057 15.1871 14.7174 15.176V15.1756L15.1734 14.7205C15.1854 14.7081 15.2063 14.7084 15.2184 14.7205L16.819 16.3192C16.8308 16.3309 16.8307 16.3519 16.819 16.3639ZM8.14978 13.3764C9.59251 14.8178 11.9292 14.8175 13.3718 13.3763C14.8115 11.9381 14.8115 9.59851 13.3717 8.16045C11.9291 6.71937 9.59233 6.71934 8.14967 8.16056C6.70701 9.60183 6.70683 11.9351 8.14978 13.3764ZM9.12071 5.07351L9.12075 6.90629C8.70069 7.08439 8.30984 7.33183 7.96239 7.6427L7.96232 5.07351H9.12071ZM11.3572 1.17085L12.5156 1.17081L12.5157 6.95705C12.1482 6.78809 11.758 6.67363 11.3574 6.6173L11.3572 1.17085ZM17.1762 15.9619L15.5756 14.3632C15.3662 14.1541 15.0254 14.1541 14.8158 14.3632L14.7666 14.4124L13.9026 13.5494C15.6073 11.6301 15.1963 8.62689 13.0214 7.23359L13.0213 0.919688C13.0214 0.886465 13.0149 0.853549 13.0023 0.822829C12.9896 0.792108 12.971 0.764186 12.9475 0.740665C12.924 0.717144 12.8961 0.698485 12.8654 0.685759C12.8346 0.673033 12.8017 0.666489 12.7684 0.666504L11.1044 0.666541C10.9649 0.666541 10.8518 0.7793 10.8518 0.919761L10.8519 6.57619C10.4322 6.56738 10.0218 6.61914 9.62648 6.72939L9.62644 4.82085C9.6265 4.78766 9.61999 4.7548 9.6073 4.72413C9.59462 4.69347 9.57599 4.6656 9.5525 4.64214C9.52901 4.61868 9.50112 4.60008 9.47042 4.5874C9.43972 4.57473 9.40681 4.56823 9.37359 4.56829L7.70977 4.56832C7.67655 4.56827 7.64365 4.57477 7.61295 4.58744C7.58224 4.60011 7.55435 4.61872 7.53086 4.64218C7.50737 4.66564 7.48875 4.6935 7.47606 4.72417C7.46337 4.75484 7.45687 4.7877 7.45692 4.82088L7.457 8.18049C6.87717 8.91603 6.56259 9.81799 6.56263 10.7686C6.5627 13.0861 8.44065 14.9616 10.761 14.9615C11.7975 14.9615 12.7767 14.5887 13.545 13.9065L14.409 14.7695L14.3598 14.8186C14.1504 15.0278 14.1503 15.3683 14.3598 15.5776L15.9605 17.1763C16.1703 17.3856 16.5111 17.3853 16.7207 17.1763L17.1763 16.7207C17.386 16.5117 17.3856 16.1697 17.1762 15.9619ZM12.743 12.7484C13.8389 11.6541 13.8384 9.88253 12.7428 8.78835C11.6479 7.69464 9.87335 7.69453 8.77825 8.78846C7.68801 9.87752 7.68816 11.6596 8.77836 12.7485C9.87372 13.8426 11.648 13.8431 12.743 12.7484ZM13.1007 8.43132C11.8079 7.14009 9.71374 7.14017 8.42103 8.43143C7.82056 9.03122 7.49978 9.80617 7.45825 10.593H7.457V10.6215C7.45253 10.7196 7.45253 10.8179 7.457 10.916V10.9445H7.45825C7.55019 12.6856 8.98507 14.0738 10.7609 14.0738C12.5895 14.0737 14.0697 12.5951 14.0697 10.7686C14.0697 9.88577 13.7257 9.05557 13.1007 8.43132ZM2.33113 12.8567L1.17255 12.8568L1.17244 8.28588L2.33102 8.28585L2.33113 12.8567ZM2.58386 7.7807L0.919595 7.78073C0.852548 7.78077 0.788258 7.80739 0.740848 7.85475C0.693439 7.9021 0.666787 7.96632 0.666748 8.03329L0.666859 13.1093C0.666898 13.1763 0.693549 13.2405 0.740959 13.2878C0.788369 13.3352 0.852658 13.3618 0.919706 13.3619L2.58397 13.3618C2.65102 13.3618 2.71531 13.3352 2.76272 13.2878C2.81013 13.2405 2.83678 13.1762 2.83682 13.1093L2.83671 8.03325C2.83667 7.96628 2.81002 7.90207 2.76261 7.85471C2.7152 7.80736 2.65091 7.78074 2.58386 7.7807ZM5.7259 12.8566L4.56733 12.8567L4.5671 3.65936L5.72568 3.65932L5.7259 12.8566ZM5.97871 3.15439L4.31444 3.15443C4.28125 3.15439 4.24837 3.16089 4.21769 3.17356C4.18701 3.18622 4.15913 3.2048 4.13564 3.22824C4.11216 3.25167 4.09353 3.27951 4.08083 3.31014C4.06812 3.34077 4.06159 3.37361 4.0616 3.40677L4.06182 13.1092C4.06183 13.1762 4.08847 13.2404 4.13588 13.2878C4.1833 13.3351 4.24761 13.3617 4.31466 13.3618L5.97893 13.3617C6.11845 13.3617 6.23156 13.2485 6.23156 13.1092L6.23134 3.40673C6.23136 3.37359 6.22484 3.34076 6.21216 3.31014C6.19947 3.27951 6.18086 3.25168 6.1574 3.22825C6.13394 3.20481 6.10608 3.18622 6.07542 3.17355C6.04475 3.16088 6.01189 3.15437 5.97871 3.15439Z" fill="#51645F"/>
</g>
</svg>
