<svg width="18" height="17" viewBox="0 0 18 17" fill="none" xmlns="http://www.w3.org/2000/svg">
<g id="Group">
<path id="Vector" d="M17.2876 12.5863C17.1058 11.8898 16.3999 11.4667 15.6805 11.6214L10.6666 12.7131C10.7652 12.4349 10.7654 12.1301 10.6672 11.8518C10.5689 11.5735 10.3784 11.3395 10.129 11.1907L7.22252 9.46946C7.10589 9.39476 6.99632 9.30904 6.89525 9.21343C6.63988 8.98704 6.32202 8.70551 5.72964 8.64073C5.16683 8.57939 4.43433 8.71481 3.44479 9.06595C3.41176 8.85075 3.30496 8.65469 3.1436 8.51302C2.98223 8.37134 2.77688 8.29334 2.56445 8.29304H1.55778C1.32153 8.29331 1.09503 8.38968 0.927976 8.561C0.760922 8.73232 0.666954 8.9646 0.666687 9.20688V14.2864C0.666954 14.5287 0.760922 14.761 0.927976 14.9323C1.09503 15.1036 1.32153 15.2 1.55778 15.2003H2.56143C2.7952 15.2 3.01951 15.1055 3.18609 14.9374C3.35267 14.7692 3.44822 14.5406 3.45219 14.3009C4.2539 14.1855 5.27234 14.7816 6.25952 15.3598C7.11029 15.8581 7.92141 16.3333 8.59914 16.3333C8.72664 16.3344 8.85355 16.3154 8.97547 16.2771L16.3515 14.2503C16.6907 14.1568 16.9798 13.929 17.1554 13.617C17.3309 13.3049 17.3785 12.9342 17.2876 12.5863ZM2.56143 14.649H1.55778C1.46406 14.6489 1.3742 14.6106 1.30793 14.5427C1.24166 14.4747 1.20439 14.3826 1.2043 14.2864V9.20688C1.20439 9.11077 1.24166 9.01862 1.30793 8.95065C1.3742 8.88269 1.46406 8.84447 1.55778 8.84438H2.56143C2.65515 8.84447 2.74501 8.88269 2.81128 8.95065C2.87755 9.01862 2.91482 9.11077 2.91491 9.20688V14.2864C2.91482 14.3826 2.87755 14.4747 2.81128 14.5427C2.74501 14.6106 2.65515 14.6489 2.56143 14.649ZM16.2124 13.7186L8.83166 15.7461L8.81923 15.7499C8.30077 15.9198 7.39892 15.3919 6.52699 14.8812C5.48772 14.272 4.41653 13.6455 3.45353 13.7441V9.64658C5.64934 8.83886 6.10362 9.241 6.54479 9.63038C6.67113 9.74929 6.80841 9.85534 6.95472 9.94706L9.86118 11.6679C9.93966 11.7146 10.0084 11.7767 10.0635 11.8507C10.1186 11.9246 10.1589 12.009 10.1822 12.0989C10.2055 12.1888 10.2113 12.2826 10.1992 12.3748C10.1872 12.467 10.1576 12.5559 10.112 12.6364C10.0665 12.7169 10.0059 12.7874 9.93383 12.8438C9.86172 12.9003 9.77948 12.9417 9.69179 12.9656C9.6041 12.9895 9.51268 12.9954 9.42275 12.9831C9.33282 12.9707 9.24614 12.9403 9.16766 12.8936L6.74102 11.457C6.67945 11.4227 6.60725 11.4145 6.53982 11.434C6.47238 11.4535 6.41503 11.4992 6.37998 11.5614C6.34494 11.6236 6.33497 11.6974 6.3522 11.7671C6.36942 11.8367 6.41249 11.8967 6.47222 11.9343L8.89886 13.3712C9.08481 13.4816 9.29587 13.5397 9.51073 13.5397C9.70354 13.5394 9.89362 13.4929 10.0658 13.404C10.0785 13.4031 10.091 13.4014 10.1034 13.3988L15.7907 12.1638C16.2379 12.0666 16.6576 12.3102 16.7675 12.7303C16.8211 12.9367 16.7928 13.1565 16.6888 13.3415C16.5847 13.5265 16.4134 13.6617 16.2124 13.7175V13.7186ZM2.50767 9.83989C2.50794 9.93088 2.48186 10.0199 2.43276 10.0957C2.38365 10.1715 2.31372 10.2306 2.23182 10.2656C2.14992 10.3006 2.05974 10.3099 1.97269 10.2923C1.88565 10.2746 1.80565 10.2309 1.74285 10.1667C1.68004 10.1024 1.63724 10.0205 1.61988 9.93124C1.60251 9.84202 1.61135 9.74951 1.64529 9.66544C1.67923 9.58137 1.73673 9.50952 1.81052 9.45899C1.8843 9.40846 1.97105 9.38152 2.05977 9.38159C2.17831 9.38186 2.29192 9.4302 2.37583 9.51606C2.45975 9.60192 2.50714 9.71833 2.50767 9.83989ZM7.81456 6.81131H8.26952C8.35967 7.14365 8.48898 7.46349 8.65458 7.76375L8.33302 8.09387C8.24865 8.17926 8.19751 8.29325 8.18916 8.41452C8.18081 8.53578 8.21583 8.65601 8.28766 8.75272C8.57204 9.13969 8.90783 9.48394 9.28527 9.77545C9.37947 9.84931 9.49671 9.88536 9.615 9.87686C9.73328 9.86836 9.84448 9.81588 9.92771 9.72928L10.2496 9.39951C10.5423 9.56937 10.8541 9.70221 11.178 9.79509V10.2617C11.1773 10.3832 11.2198 10.5009 11.2976 10.5926C11.3754 10.6844 11.4832 10.7438 11.6007 10.7599C12.0688 10.8275 12.5438 10.8275 13.0119 10.7599C13.1296 10.7439 13.2375 10.6844 13.3154 10.5925C13.3933 10.5006 13.4358 10.3827 13.435 10.261V9.79509C13.759 9.70251 14.0708 9.56991 14.3637 9.4002L14.6852 9.72997C14.7685 9.81657 14.8797 9.86905 14.998 9.87755C15.1162 9.88605 15.2335 9.85 15.3277 9.77614C15.705 9.48447 16.0406 9.13997 16.3246 8.75272C16.3965 8.65605 16.4316 8.53585 16.4233 8.41458C16.415 8.29332 16.3639 8.1793 16.2796 8.09387L15.9577 7.76375C16.1233 7.46362 16.2526 7.1439 16.3428 6.81166H16.798C16.9166 6.81247 17.0314 6.76887 17.1209 6.68906C17.2103 6.60925 17.2683 6.4987 17.2839 6.37817C17.3498 5.89811 17.3498 5.41095 17.2839 4.9309C17.2682 4.81042 17.2102 4.69996 17.1208 4.62022C17.0313 4.54048 16.9166 4.49693 16.798 4.49775H16.3424C16.2521 4.16542 16.1227 3.84559 15.957 3.54531L16.2789 3.21554C16.3628 3.13031 16.4137 3.01675 16.4221 2.89596C16.4305 2.77516 16.3958 2.65535 16.3246 2.55876C16.0404 2.17152 15.7046 1.82713 15.327 1.53568C15.2328 1.46183 15.1156 1.42577 14.9973 1.43427C14.879 1.44277 14.7678 1.49525 14.6846 1.58186L14.363 1.91197C14.0705 1.74172 13.7588 1.60854 13.435 1.51535V1.04878C13.4358 0.927197 13.3933 0.809484 13.3156 0.717696C13.2378 0.625907 13.1301 0.566343 13.0126 0.550162C12.5444 0.483279 12.0695 0.483279 11.6014 0.550162C11.4839 0.566413 11.3762 0.625998 11.2985 0.717771C11.2207 0.809544 11.1783 0.927218 11.179 1.04878V1.51535C10.8547 1.60797 10.5426 1.7407 10.2496 1.91059L9.92771 1.58048C9.8444 1.49401 9.73323 1.44162 9.61498 1.43312C9.49674 1.42462 9.37952 1.46059 9.28527 1.5343C8.90757 1.82617 8.57175 2.17103 8.28766 2.55876C8.21576 2.65544 8.1807 2.77568 8.18905 2.89697C8.1974 3.01825 8.24859 3.13226 8.33302 3.21761L8.65458 3.54738C8.48891 3.84761 8.3596 4.16745 8.26952 4.49982H7.81456C7.69601 4.49899 7.58123 4.54252 7.49172 4.62226C7.40222 4.70199 7.34414 4.81246 7.32836 4.93297C7.26244 5.41302 7.26244 5.90018 7.32836 6.38023C7.34452 6.50039 7.40278 6.61041 7.49225 6.68974C7.58172 6.76907 7.69629 6.81228 7.81456 6.81131ZM7.85522 5.04978H8.47885C8.53999 5.04979 8.59931 5.02843 8.64702 4.98921C8.69473 4.95 8.72797 4.89527 8.74127 4.83407C8.83287 4.41424 8.99476 4.01387 9.21975 3.65076C9.25245 3.59785 9.2666 3.5351 9.25989 3.47285C9.25317 3.41059 9.22598 3.35253 9.18279 3.30824L8.74194 2.8558C8.98233 2.53415 9.26295 2.24636 9.57659 1.99984L10.0174 2.45228C10.0606 2.49666 10.1173 2.5246 10.1781 2.53149C10.2389 2.53838 10.3001 2.52381 10.3518 2.49019C10.7058 2.25946 11.0962 2.09343 11.5056 1.9995C11.565 1.98584 11.6181 1.95192 11.6563 1.90328C11.6944 1.85465 11.7153 1.79417 11.7156 1.73175V1.09047C12.1074 1.0381 12.5042 1.0381 12.896 1.09047V1.73175C12.896 1.79445 12.9168 1.85529 12.9551 1.90421C12.9933 1.95314 13.0467 1.98724 13.1063 2.00087C13.5155 2.09426 13.9058 2.2597 14.2599 2.48984C14.3115 2.52347 14.3727 2.53804 14.4335 2.53115C14.4943 2.52425 14.551 2.49632 14.5942 2.45194L15.0354 1.9995C15.3488 2.24612 15.6293 2.5339 15.8697 2.85545L15.4288 3.30789C15.3856 3.35219 15.3584 3.41024 15.3517 3.4725C15.345 3.53476 15.3592 3.59751 15.3919 3.65041C15.6169 4.01326 15.7788 4.41341 15.8703 4.83304C15.8837 4.89418 15.917 4.94882 15.9647 4.98797C16.0124 5.02712 16.0717 5.04843 16.1328 5.0484H16.7564C16.8079 5.45019 16.8079 5.85716 16.7564 6.25894H16.1324C16.0714 6.25899 16.0122 6.28034 15.9645 6.31948C15.9169 6.35862 15.8837 6.41323 15.8703 6.47431C15.7788 6.8945 15.617 7.29523 15.3919 7.65865C15.3592 7.71156 15.345 7.77431 15.3517 7.83657C15.3584 7.89882 15.3856 7.95688 15.4288 8.00117L15.87 8.45362C15.6294 8.7751 15.3488 9.06286 15.0354 9.30957L14.5942 8.85747C14.5509 8.81323 14.4943 8.78541 14.4336 8.77858C14.3729 8.77176 14.3117 8.78633 14.2602 8.81991C13.906 9.05072 13.5155 9.21675 13.106 9.3106C13.0464 9.3243 12.9932 9.35837 12.955 9.40722C12.9169 9.45607 12.896 9.51679 12.896 9.57938V10.2193C12.5042 10.2717 12.1074 10.2717 11.7156 10.2193V9.57938C11.7156 9.51673 11.6948 9.45593 11.6567 9.40701C11.6185 9.35809 11.5652 9.32397 11.5056 9.31026C11.0961 9.2167 10.7056 9.05065 10.3518 8.81957C10.3001 8.78594 10.2389 8.77137 10.1781 8.77826C10.1173 8.78516 10.0606 8.8131 10.0174 8.85747L9.57659 9.30992C9.26295 9.06339 8.98233 8.7756 8.74194 8.45396L9.18279 8.00324C9.22598 7.95895 9.25317 7.90089 9.25989 7.83863C9.2666 7.77637 9.25245 7.71363 9.21975 7.66072C8.99469 7.29765 8.83279 6.89727 8.74127 6.47741C8.72797 6.41621 8.69473 6.36148 8.64702 6.32226C8.59931 6.28305 8.53999 6.26168 8.47885 6.2617H7.85522C7.8037 5.86003 7.8037 5.45317 7.85522 5.05151V5.04978ZM12.306 8.41674C12.8383 8.41674 13.3588 8.25484 13.8014 7.95152C14.2441 7.64819 14.5891 7.21706 14.7928 6.71265C14.9966 6.20824 15.0499 5.65319 14.946 5.11771C14.8421 4.58223 14.5858 4.09036 14.2093 3.7043C13.8329 3.31823 13.3533 3.05532 12.8311 2.94881C12.309 2.8423 11.7677 2.89696 11.2759 3.1059C10.784 3.31483 10.3636 3.66865 10.0679 4.12261C9.77209 4.57657 9.61422 5.11028 9.61422 5.65626C9.61502 6.38813 9.89887 7.0898 10.4035 7.60731C10.9081 8.12482 11.5923 8.41592 12.306 8.41674ZM12.306 3.44711C12.732 3.44711 13.1485 3.57667 13.5027 3.81942C13.857 4.06216 14.1331 4.40718 14.2961 4.81085C14.4592 5.21452 14.5018 5.65871 14.4187 6.08724C14.3356 6.51577 14.1304 6.90941 13.8292 7.21836C13.5279 7.52732 13.1441 7.73772 12.7262 7.82296C12.3084 7.9082 11.8752 7.86445 11.4816 7.69724C11.088 7.53004 10.7516 7.24689 10.5149 6.88359C10.2782 6.5203 10.1518 6.09318 10.1518 5.65626C10.1521 5.07031 10.3791 4.50842 10.783 4.09397C11.1869 3.67951 11.7346 3.44637 12.306 3.44573V3.44711ZM11.1881 5.91711C11.1631 5.8915 11.1433 5.86109 11.1298 5.82764C11.1163 5.79418 11.1094 5.75833 11.1094 5.72212C11.1094 5.68592 11.1164 5.65007 11.1299 5.61663C11.1435 5.58318 11.1633 5.5528 11.1882 5.52721C11.2132 5.50162 11.2429 5.48132 11.2755 5.46748C11.3081 5.45364 11.3431 5.44653 11.3784 5.44654C11.4137 5.44656 11.4486 5.45371 11.4812 5.46758C11.5139 5.48145 11.5435 5.50177 11.5684 5.52738L12.0002 5.97018L13.0317 4.75619C13.0801 4.70725 13.1447 4.6789 13.2126 4.67684C13.2805 4.67478 13.3467 4.69917 13.3978 4.74509C13.4489 4.79102 13.4811 4.85509 13.488 4.9244C13.4949 4.99371 13.4759 5.06313 13.435 5.1187L12.2152 6.55356C12.191 6.58207 12.1613 6.60516 12.1281 6.62141C12.0948 6.63765 12.0586 6.64669 12.0217 6.64798H12.0126C11.9773 6.64801 11.9424 6.6409 11.9097 6.62707C11.8771 6.61323 11.8474 6.59294 11.8225 6.56734L11.1881 5.91711Z" fill="#51645F"/>
</g>
</svg>
