<svg width="18" height="12" viewBox="0 0 18 12" fill="none" xmlns="http://www.w3.org/2000/svg">
<g id="Group">
<path id="Vector" d="M15.1413 2.03271C15.1594 2.10517 15.2319 2.1414 15.3044 2.1414L15.4855 2.10517L15.5218 2.28633C15.5399 2.3588 15.6123 2.39503 15.6848 2.37691C15.7573 2.3588 15.7935 2.28633 15.7935 2.21387L15.7573 2.03271L15.9384 1.99648C16.0109 1.97836 16.0471 1.9059 16.029 1.83343C16.0109 1.76097 15.9384 1.72474 15.866 1.74285L15.6848 1.77909L15.6486 1.59793C15.6305 1.52546 15.558 1.48923 15.4855 1.50735C15.4131 1.52546 15.3768 1.59793 15.395 1.67039L15.4312 1.85155L15.25 1.88778C15.1776 1.9059 15.1232 1.97836 15.1413 2.03271ZM15.8841 7.90227C15.9022 7.97474 15.9747 8.01097 16.0471 8.01097L16.2283 7.97474L16.2645 8.1559C16.2826 8.22836 16.3551 8.26459 16.4276 8.24648C16.5 8.22836 16.5363 8.1559 16.5363 8.08343L16.5 7.90227L16.6812 7.86604C16.7536 7.84793 16.7899 7.77546 16.7718 7.703C16.7536 7.63054 16.6812 7.5943 16.6087 7.61242L16.4276 7.64865L16.3913 7.46749C16.3732 7.39503 16.3008 7.3588 16.2283 7.37691C16.1558 7.39503 16.1196 7.46749 16.1377 7.53996L16.1739 7.72112L15.9928 7.75735C15.9022 7.75735 15.866 7.82981 15.8841 7.90227ZM2.0435 1.72474C2.11597 1.74285 2.18843 1.68851 2.20655 1.61604L2.24278 1.43488L2.42394 1.47111C2.4964 1.48923 2.56887 1.43488 2.58698 1.36242C2.6051 1.28996 2.55075 1.21749 2.47829 1.19938L2.29713 1.16314L2.33336 0.981984C2.35147 0.90952 2.29713 0.837057 2.22466 0.818941C2.1522 0.800825 2.07974 0.855172 2.06162 0.927636L2.02539 1.1088L1.84423 1.07256C1.77176 1.05445 1.6993 1.1088 1.68118 1.18126C1.66307 1.25372 1.71742 1.32619 1.78988 1.3443L1.97104 1.38053L1.93481 1.56169C1.91669 1.65227 1.97104 1.70662 2.0435 1.72474ZM10.4312 11.7247C10.5036 11.7429 10.5761 11.6885 10.5942 11.616L10.6305 11.4349L10.8116 11.4711C10.8841 11.4892 10.9565 11.4349 10.9747 11.3624C10.9928 11.29 10.9384 11.2175 10.866 11.1994L10.6848 11.1631L10.721 10.982C10.7392 10.9095 10.6848 10.8371 10.6123 10.8189C10.5399 10.8008 10.4674 10.8552 10.4493 10.9276L10.4131 11.1088L10.2319 11.0726C10.1594 11.0544 10.087 11.1088 10.0689 11.1813C10.0508 11.2537 10.1051 11.3262 10.1776 11.3443L10.3587 11.3805L10.3225 11.5617C10.3225 11.6342 10.3587 11.7066 10.4312 11.7247ZM3.25727 9.80445H4.76089C4.81524 9.80445 4.86959 9.7501 4.86959 9.69575C4.86959 9.6414 4.81524 9.58706 4.76089 9.58706H3.25727C3.20292 9.58706 3.14858 9.6414 3.14858 9.69575C3.14858 9.76822 3.18481 9.80445 3.25727 9.80445ZM4.88771 8.48199L4.59785 8.17401C4.57974 8.1559 4.5435 8.13778 4.52539 8.13778H4.47104C4.45292 8.13778 4.45292 8.1559 4.43481 8.1559L4.12684 8.46387C4.0906 8.5001 4.0906 8.57256 4.12684 8.6088C4.16307 8.64503 4.23553 8.64503 4.27176 8.6088L4.39858 8.48199V9.31532C4.39858 9.36967 4.45292 9.42401 4.50727 9.42401C4.56162 9.42401 4.61597 9.36967 4.61597 9.31532V8.5001L4.72466 8.6088C4.74278 8.62691 4.77901 8.64503 4.79713 8.64503C4.81524 8.64503 4.85147 8.62691 4.86959 8.6088C4.92394 8.59068 4.94205 8.51822 4.88771 8.48199ZM3.49278 9.42401C3.54713 9.42401 3.60147 9.36967 3.60147 9.31532V8.5001L3.71017 8.6088C3.72829 8.62691 3.76452 8.64503 3.78263 8.64503C3.80075 8.64503 3.83698 8.62691 3.8551 8.6088C3.89133 8.57256 3.90945 8.5001 3.8551 8.46387L3.56524 8.1559C3.54713 8.13778 3.51089 8.11967 3.49278 8.11967H3.43843C3.42031 8.11967 3.42032 8.13778 3.4022 8.13778L3.09423 8.44575C3.058 8.48198 3.058 8.55445 3.09423 8.59068C3.13046 8.62691 3.20292 8.62691 3.23916 8.59068L3.38408 8.48199V9.31532C3.38408 9.36967 3.43843 9.42401 3.49278 9.42401ZM10.1776 9.58706H8.69205C8.63771 9.58706 8.58336 9.6414 8.58336 9.69575C8.58336 9.7501 8.63771 9.80445 8.69205 9.80445H10.1776C10.2319 9.80445 10.2863 9.7501 10.2863 9.69575C10.2863 9.6414 10.2319 9.58706 10.1776 9.58706ZM10.0326 8.1559C10.0145 8.13778 9.97829 8.11967 9.96017 8.11967H9.90582C9.88771 8.11967 9.88771 8.13778 9.86959 8.13778L9.56162 8.44575C9.52539 8.48198 9.52539 8.55445 9.56162 8.59068C9.59785 8.62691 9.67032 8.62691 9.70655 8.59068L9.83336 8.46387V9.2972C9.83336 9.35155 9.88771 9.4059 9.94205 9.4059C9.9964 9.4059 10.0508 9.35155 10.0508 9.2972V8.48199L10.1594 8.59068C10.1776 8.6088 10.2138 8.62691 10.2319 8.62691C10.25 8.62691 10.2863 8.6088 10.3044 8.59068C10.3406 8.55445 10.3587 8.48198 10.3044 8.44575L10.0326 8.1559ZM8.69205 8.62691L8.81887 8.48199V9.31532C8.81887 9.36967 8.87321 9.42401 8.92756 9.42401C8.98191 9.42401 9.03626 9.36967 9.03626 9.31532V8.5001L9.14495 8.6088C9.16307 8.62691 9.1993 8.64503 9.21742 8.64503C9.23553 8.64503 9.27176 8.62691 9.28988 8.6088C9.32611 8.57256 9.34423 8.5001 9.28988 8.46387L9.00003 8.1559C8.98191 8.13778 8.94568 8.11967 8.92756 8.11967H8.87321C8.8551 8.11967 8.8551 8.13778 8.83698 8.13778L8.52901 8.44575C8.49278 8.48198 8.49278 8.55445 8.52901 8.59068C8.56524 8.62691 8.65582 8.66315 8.69205 8.62691ZM7.46017 4.53271H5.97466C5.92031 4.53271 5.86597 4.58706 5.86597 4.6414C5.86597 4.69575 5.92031 4.7501 5.97466 4.7501H7.46017C7.51452 4.7501 7.56887 4.69575 7.56887 4.6414C7.56887 4.56894 7.51452 4.53271 7.46017 4.53271ZM7.00727 3.55445L7.13408 3.42764V4.26097C7.13408 4.31532 7.18843 4.36967 7.24278 4.36967C7.29713 4.36967 7.35147 4.31532 7.35147 4.26097V3.44575L7.46017 3.55445C7.47829 3.57256 7.51452 3.59068 7.53263 3.59068C7.55075 3.59068 7.58698 3.57256 7.6051 3.55445C7.64133 3.51822 7.65945 3.44575 7.6051 3.40952L7.31524 3.10155C7.29713 3.08343 7.26089 3.06532 7.24278 3.06532H7.18843C7.17032 3.06532 7.17032 3.08343 7.1522 3.08343L6.84423 3.40952C6.808 3.44575 6.808 3.51822 6.84423 3.55445C6.88046 3.59068 6.95292 3.6088 7.00727 3.55445ZM5.97466 3.55445L6.10147 3.42764V4.26097C6.10147 4.31532 6.15582 4.36967 6.21017 4.36967C6.26452 4.36967 6.31887 4.31532 6.31887 4.26097V3.44575L6.42756 3.55445C6.44568 3.57256 6.48191 3.59068 6.50003 3.59068C6.51814 3.59068 6.55437 3.57256 6.57249 3.55445C6.60872 3.51822 6.62684 3.44575 6.57249 3.40952L6.28263 3.10155C6.26452 3.08343 6.22829 3.06532 6.21017 3.06532H6.15582C6.13771 3.06532 6.13771 3.08343 6.11959 3.08343L5.82974 3.40952C5.7935 3.44575 5.7935 3.51822 5.82974 3.55445C5.86597 3.59068 5.93843 3.6088 5.97466 3.55445ZM12.8587 8.55445C12.7863 8.62691 12.7863 8.75372 12.8587 8.8443L13.4022 9.38778C13.4384 9.42401 13.4928 9.44213 13.5471 9.44213C13.6015 9.44213 13.6558 9.42401 13.6921 9.38778L14.7971 8.28271C14.8696 8.21025 14.8696 8.08343 14.7971 7.99285C14.7247 7.92039 14.5979 7.92039 14.5073 7.99285L13.529 8.953L13.1305 8.55445C13.058 8.48199 12.9312 8.48199 12.8587 8.55445Z" fill="#51645F"/>
<path id="Vector_2" d="M0.847846 10.6556H4.27176C4.38046 10.6556 4.45292 10.5832 4.45292 10.4745C4.45292 10.3658 4.38046 10.2933 4.27176 10.2933H2.71379V5.89114C2.71379 5.7281 2.8406 5.58317 3.02176 5.58317H4.28988V7.06868C4.28988 7.15926 4.34422 7.23172 4.41669 7.28607C4.50727 7.3223 4.59785 7.30419 4.67031 7.24984L5.26814 6.74259L5.86596 7.24984C5.90219 7.28607 5.95654 7.30419 6.01089 7.30419C6.04712 7.30419 6.08335 7.30419 6.10147 7.28607C6.17393 7.24984 6.22828 7.15926 6.22828 7.06868V5.58317H7.78625V10.2933H5.19567C5.08698 10.2933 5.01451 10.3658 5.01451 10.4745C5.01451 10.5832 5.08698 10.6556 5.19567 10.6556H15.1776C15.2863 10.6556 15.3587 10.5832 15.3587 10.4745C15.3587 10.3658 15.2863 10.2933 15.1776 10.2933H14.9602C15.4674 9.931 15.7935 9.35129 15.7935 8.681C15.7935 7.52158 14.779 6.59766 13.6015 6.72448V5.89114C13.6015 5.52882 13.3116 5.23897 12.9312 5.23897H10.7935C10.8478 5.14839 10.866 5.03969 10.866 4.931V0.836794C10.866 0.474475 10.5761 0.166504 10.1957 0.166504H5.72104C5.35872 0.166504 5.05075 0.456359 5.05075 0.836794V4.94911C5.05075 5.05781 5.08698 5.1665 5.12321 5.25708H3.02176C2.65944 5.25708 2.35147 5.54694 2.35147 5.92737V10.2933H0.847846C0.739151 10.2933 0.666687 10.3658 0.666687 10.4745C0.666687 10.5832 0.739151 10.6556 0.847846 10.6556ZM10.087 5.60129H11.3007V6.79694L10.8297 6.39839C10.7392 6.32593 10.6123 6.32593 10.5218 6.39839L10.087 6.77882V5.60129ZM15.4312 8.69911C15.4312 9.56868 14.7247 10.2933 13.8551 10.3114H13.7645C13.6015 10.3114 13.4384 10.2752 13.2754 10.2209C12.6232 9.98535 12.1884 9.38752 12.1884 8.69911C12.1884 7.93824 12.7138 7.28607 13.4384 7.12303C13.5471 7.10491 13.6739 7.08679 13.8007 7.08679C14.7065 7.08679 15.4312 7.81143 15.4312 8.69911ZM13.2392 5.89114V6.79694C12.4058 7.05056 11.8442 7.81143 11.8442 8.681C11.8442 9.33317 12.1522 9.931 12.6776 10.2933H8.16669V5.58317H9.72466V7.06868C9.72466 7.15926 9.77901 7.23172 9.85147 7.28607C9.94205 7.3223 10.0326 7.30419 10.1051 7.24984L10.7029 6.74259L11.3007 7.24984C11.337 7.28607 11.3913 7.30419 11.4457 7.30419C11.5725 7.30419 11.6812 7.19549 11.6812 7.06868V5.58317H12.9493C13.0942 5.60129 13.2392 5.7281 13.2392 5.89114ZM8.60147 0.528823V1.72448L8.13046 1.32592C8.09422 1.28969 8.03988 1.27158 7.98553 1.27158C7.93118 1.27158 7.87683 1.28969 7.8406 1.32592L7.36959 1.72448V0.546939H8.60147V0.528823ZM5.4493 0.836794C5.4493 0.67375 5.57611 0.528823 5.75727 0.528823H7.02538V2.01433C7.02538 2.10491 7.07973 2.17737 7.15219 2.23172C7.24277 2.26795 7.33335 2.24984 7.40582 2.19549L8.00364 1.68824L8.60147 2.19549C8.67393 2.24984 8.76451 2.26795 8.85509 2.23172C8.94567 2.19549 8.98191 2.10491 8.98191 2.01433V0.528823H10.25C10.4131 0.528823 10.558 0.655634 10.558 0.836794V4.94911C10.558 5.11216 10.4312 5.25708 10.25 5.25708H5.73915C5.57611 5.25708 5.43118 5.13027 5.43118 4.94911V0.836794H5.4493ZM5.88408 5.60129V6.79694L5.41306 6.39839C5.37683 6.36216 5.32248 6.34404 5.26814 6.34404C5.21379 6.34404 5.15944 6.36216 5.12321 6.39839L4.65219 6.77882V5.60129H5.88408ZM17.1522 10.3114H16.2645C16.1558 10.3114 16.0834 10.3839 16.0834 10.4926C16.0834 10.6013 16.1558 10.6738 16.2645 10.6738H17.1522C17.2609 10.6738 17.3334 10.6013 17.3334 10.4926C17.3334 10.3839 17.2609 10.3114 17.1522 10.3114Z" fill="#51645F"/>
</g>
</svg>
