<svg width="18" height="13" viewBox="0 0 18 13" fill="none" xmlns="http://www.w3.org/2000/svg">
<g id="Group">
<path id="Vector" d="M13.6543 5.8557L13.6543 5.85555L13.6481 5.8557C12.9581 5.87282 12.3021 6.15893 11.8202 6.65297C11.3383 7.14702 11.0685 7.80986 11.0685 8.50004C11.0685 9.19022 11.3383 9.85306 11.8202 10.3471C12.3021 10.8412 12.9581 11.1273 13.6481 11.1444L13.6481 11.1445L13.6543 11.1444C14.3442 11.1273 15.0002 10.8412 15.4821 10.3471C15.9641 9.85306 16.2338 9.19022 16.2338 8.50004C16.2338 7.80986 15.9641 7.14702 15.4821 6.65297C15.0002 6.15893 14.3442 5.87282 13.6543 5.8557ZM10.094 8.50004C10.094 6.53652 11.6876 4.94287 13.6512 4.94287C15.6147 4.94287 17.2083 6.53652 17.2083 8.50004C17.2083 10.4636 15.6147 12.0572 13.6512 12.0572C11.6876 12.0572 10.094 10.4636 10.094 8.50004Z" fill="#51645F" stroke="white" stroke-width="0.25"/>
<path id="Vector_2" d="M13.007 9.98531L13.007 9.98529L12.2326 9.21093C12.15 9.1249 12.1043 9.00991 12.1054 8.8906C12.1065 8.77093 12.1546 8.65648 12.2392 8.5719C12.3239 8.48732 12.4384 8.43938 12.5581 8.43839C12.6774 8.43741 12.7923 8.48321 12.8783 8.56596L13.1915 8.87912L13.2907 8.97832L13.3778 8.86837L14.4543 7.5102C14.5313 7.42238 14.6391 7.36735 14.7555 7.35648C14.8727 7.34552 14.9897 7.38023 15.0819 7.45337C15.1742 7.52651 15.2347 7.63243 15.2509 7.74908C15.2669 7.86485 15.2379 7.98233 15.17 8.07738L13.6874 9.94637C13.6874 9.94637 13.6874 9.94638 13.6874 9.94638C13.6474 9.99678 13.5972 10.0382 13.54 10.0678C13.4829 10.0974 13.4202 10.1147 13.3559 10.1183C13.2917 10.122 13.2274 10.1121 13.1673 10.0891C13.1071 10.0662 13.0525 10.0308 13.007 9.98531Z" fill="#51645F" stroke="white" stroke-width="0.25"/>
<path id="Vector_3" d="M15.1589 0.790535L15.0705 0.878837C15.4463 1.25544 15.658 1.76633 15.658 2.29829V5.81457C15.658 5.93561 15.6099 6.0517 15.5243 6.13729C15.4387 6.22288 15.3226 6.27096 15.2016 6.27096C15.0805 6.27096 14.9644 6.22288 14.8788 6.13729C14.7933 6.0517 14.7452 5.93561 14.7452 5.81457V2.29829V2.29809C14.7447 2.00814 14.6293 1.7302 14.4243 1.52517C14.2193 1.32014 13.9413 1.20476 13.6514 1.20429H13.6512L2.79847 1.20429L2.79827 1.20429C2.50832 1.20476 2.23038 1.32014 2.02535 1.52517C1.82033 1.7302 1.70494 2.00814 1.70448 2.29809V2.29829L1.70448 9.27503L1.70448 9.27523C1.70494 9.56518 1.82033 9.84312 2.02535 10.0481C2.23038 10.2532 2.50832 10.3686 2.79827 10.369H2.79847H11.6008C11.7218 10.369 11.8379 10.4171 11.9235 10.5027C12.0091 10.5883 12.0572 10.7044 12.0572 10.8254C12.0572 10.9465 12.0091 11.0625 11.9235 11.1481C11.8379 11.2337 11.7218 11.2818 11.6008 11.2818H2.79852C2.79851 11.2818 2.79849 11.2818 2.79847 11.2818C2.26628 11.2816 1.7559 11.0704 1.37918 10.6945C1.00331 10.3179 0.791687 9.80698 0.791687 9.27503L0.791687 2.29834C0.791687 2.29832 0.791687 2.2983 0.791687 2.29829C0.791924 1.76607 1.00317 1.25565 1.37911 0.878922C1.7557 0.503104 2.26656 0.291504 2.79847 0.291504L13.6511 0.291504C13.6511 0.291504 13.6512 0.291504 13.6512 0.291504C14.1834 0.291741 14.6939 0.503015 15.0706 0.87901L15.1589 0.790535ZM15.1589 0.790535C15.5582 1.19053 15.783 1.73317 15.783 2.29829V5.81457C15.783 5.96876 15.7217 6.11664 15.6127 6.22567C15.5036 6.33471 15.3558 6.39596 15.2016 6.39596C15.0474 6.39596 14.8995 6.33471 14.7905 6.22567C14.6814 6.11664 14.6202 5.96876 14.6202 5.81457V2.29829L15.1589 0.790535Z" fill="#51645F" stroke="white" stroke-width="0.25"/>
<path id="Vector_4" d="M1.24808 3.39209H15.2016C15.3226 3.39209 15.4387 3.44017 15.5243 3.52577C15.6099 3.61136 15.658 3.72744 15.658 3.84849C15.658 3.96953 15.6099 4.08561 15.5243 4.17121C15.4387 4.2568 15.3226 4.30488 15.2016 4.30488H1.24808C1.12704 4.30488 1.01095 4.2568 0.925362 4.17121C0.839771 4.08561 0.791687 3.96953 0.791687 3.84849C0.791687 3.72744 0.839771 3.61136 0.925362 3.52577C1.01095 3.44017 1.12704 3.39209 1.24808 3.39209ZM3.57366 8.04325H5.90002C6.02106 8.04325 6.13715 8.09134 6.22274 8.17693C6.30833 8.26252 6.35642 8.3786 6.35642 8.49965C6.35642 8.62069 6.30833 8.73678 6.22274 8.82237C6.13715 8.90796 6.02106 8.95604 5.90002 8.95604H3.57366C3.45262 8.95604 3.33653 8.90796 3.25094 8.82237C3.16535 8.73678 3.11727 8.62069 3.11727 8.49965C3.11727 8.3786 3.16535 8.26252 3.25094 8.17693C3.33653 8.09134 3.45262 8.04325 3.57366 8.04325Z" fill="#51645F" stroke="white" stroke-width="0.25"/>
</g>
</svg>
