<svg width="14" height="18" viewBox="0 0 14 18" fill="none" xmlns="http://www.w3.org/2000/svg">
<rect width="14" height="18" fill="#F5F5F5"/>
<g id="Seller/Dashboard" clip-path="url(#clip0_0_1)">
<rect width="1920" height="1103" transform="translate(-472 -413)" fill="#F8F9F9"/>
<g id="Group 1215879191">
<rect id="Rectangle 34624237" width="493" height="930" rx="16" transform="matrix(-1 0 0 1 385 -290)" fill="white"/>
<g id="Group 1215879193">
<rect id="Rectangle 34624523" x="-91.5" y="-168.5" width="452" height="203" rx="7.5" fill="#E9F6F3" stroke="#CECDD2"/>
<g id="Group 1215879186">
<rect id="Rectangle 34624524" x="-79.5" y="-4.5" width="104" height="27" rx="3.5" stroke="#CECDD2"/>
<g id="Group 1215879199">
<g id="PDF">
<g id="Group">
<path id="Vector" d="M13.849 5.26986V15.3252C13.849 16.4352 12.9505 17.3337 11.8405 17.3337H3.87175C2.76173 17.3337 1.86329 16.4352 1.86329 15.3252V2.67546C1.86003 1.56543 2.76173 0.666992 3.87175 0.666992H9.2461L13.849 5.26986Z" fill="#F8F9F9"/>
<path id="Vector_2" d="M13.8496 5.26986H10.0768C9.61784 5.26986 9.24675 4.89876 9.24675 4.43978V0.666992L13.8496 5.26986ZM1.56445 7.52572H11.5352C12.2155 7.52572 12.7656 8.07585 12.7656 8.75618V11.751C12.7656 12.4313 12.2155 12.9814 11.5352 12.9814H1.56445C0.884115 12.9814 0.333984 12.4313 0.333984 11.751V8.75618C0.333984 8.07585 0.884115 7.52572 1.56445 7.52572Z" fill="#1665D8"/>
<g id="Group_2">
<path id="Vector_3" d="M5.33073 9.65169C5.33073 10.3451 4.96289 10.7292 4.3151 10.7292H3.91797V11.8913H3.43945V8.58398H4.31185C4.96289 8.58398 5.33073 8.97786 5.33073 9.65169ZM4.8457 9.65169C4.8457 9.24479 4.66992 9.03646 4.31185 9.03646H3.92122V10.2734H4.31185C4.66992 10.2767 4.8457 10.0781 4.8457 9.65169ZM5.73763 8.58398H6.55794C7.19922 8.58398 7.57682 8.96159 7.57682 9.61263V10.8496C7.57682 11.5039 7.19922 11.888 6.5612 11.888H5.73438V8.58398H5.73763ZM6.56445 11.4355C6.90299 11.4355 7.09831 11.2337 7.09831 10.8398V9.6224C7.09831 9.23503 6.90951 9.03646 6.56445 9.03646H6.21289V11.4355H6.56445ZM8.62174 9.0332V10.0195H9.61784V10.4525H8.62174V11.888H8.14648V8.58398H9.70573V9.0332H8.62174Z" fill="white"/>
</g>
</g>
</g>
</g>
</g>
</g>
</g>
</g>
<defs>
<clipPath id="clip0_0_1">
<rect width="1920" height="1103" fill="white" transform="translate(-472 -413)"/>
</clipPath>
</defs>
</svg>
