<svg width="15" height="18" viewBox="0 0 15 18" fill="none" xmlns="http://www.w3.org/2000/svg">
<g id="Group">
<path id="Vector" d="M14.7351 10.5001L13.4624 8.29579C13.4327 8.24435 13.3864 8.20459 13.331 8.18307L10.6439 7.13826C10.7294 6.84934 10.7728 6.54958 10.7727 6.24827C10.7727 4.51817 9.36512 3.11063 7.63502 3.11063C5.90491 3.11063 4.49738 4.51817 4.49738 6.24827C4.49722 6.54958 4.54059 6.84934 4.62615 7.13826L1.93903 8.18307C1.88368 8.20459 1.83732 8.24435 1.80762 8.29579L0.534923 10.5001C0.516102 10.5327 0.504551 10.5689 0.501062 10.6064C0.497574 10.6439 0.502231 10.6816 0.514714 10.7171C0.527197 10.7526 0.547211 10.785 0.573381 10.812C0.599552 10.8391 0.631261 10.8601 0.666332 10.8737L1.77263 11.3039V14.8943C1.77263 14.9468 1.78852 14.9982 1.81822 15.0416C1.84791 15.085 1.89002 15.1184 1.93903 15.1374L7.54043 17.3154C7.60124 17.3391 7.66872 17.3391 7.72954 17.3154L13.3309 15.1374C13.3799 15.1184 13.4221 15.085 13.4518 15.0416C13.4814 14.9982 13.4973 14.9468 13.4973 14.8943V11.3039L14.6036 10.8737C14.6387 10.8601 14.6704 10.8391 14.6966 10.812C14.7227 10.785 14.7427 10.7526 14.7552 10.7171C14.7677 10.6816 14.7724 10.6439 14.7689 10.6064C14.7655 10.5689 14.7539 10.5327 14.7351 10.5001ZM7.63505 3.63248C9.07742 3.63248 10.2508 4.80593 10.2508 6.24827C10.2508 7.6906 9.07738 8.86405 7.63505 8.86405C6.19271 8.86405 5.01926 7.6906 5.01926 6.24827C5.01926 4.80593 6.19268 3.63248 7.63505 3.63248ZM7.63505 9.38591C8.8783 9.38591 9.95497 8.65906 10.4625 7.60799L12.5217 8.42423L7.63505 10.3243L2.74839 8.42423L4.80759 7.60799C5.31509 8.65906 6.39177 9.38591 7.63505 9.38591ZM1.139 10.4976L2.14767 8.75055L7.25697 10.7372L6.24829 12.4843L1.139 10.4976ZM2.29454 11.5068L6.26783 13.0518C6.32591 13.0743 6.39015 13.0754 6.44894 13.0547C6.50772 13.034 6.55717 12.993 6.58834 12.939L7.37412 11.578V16.6908L2.29454 14.7157V11.5068ZM12.9756 14.7157L7.89597 16.6908V11.578L8.68175 12.9391C8.71292 12.993 8.76237 13.0341 8.82115 13.0547C8.87994 13.0754 8.94419 13.0744 9.00227 13.0518L12.9756 11.5068V14.7157ZM9.02181 12.4843L8.0131 10.7372L13.1224 8.75055L14.1311 10.4976L9.02181 12.4843ZM6.98583 7.94318C7.16646 7.94318 7.33645 7.87266 7.46447 7.74465L9.49852 5.71063C9.7628 5.44631 9.7628 5.01624 9.49848 4.75186C9.37047 4.62384 9.20021 4.55333 9.01916 4.55333C8.83811 4.55333 8.66786 4.62384 8.53981 4.75186L7.04255 6.24915L6.64294 5.74631C6.57966 5.66632 6.49906 5.60174 6.40719 5.55743C6.31533 5.51312 6.2146 5.49023 6.11261 5.49051C5.95968 5.49076 5.81131 5.54259 5.69148 5.6376C5.39924 5.86999 5.35051 6.2968 5.5828 6.58901L6.43417 7.66037C6.49709 7.7479 6.57993 7.8192 6.67586 7.86838C6.77178 7.91755 6.87804 7.94319 6.98583 7.94318ZM6.01617 6.04608C6.04351 6.02416 6.07753 6.01225 6.11258 6.01233C6.16036 6.01233 6.20475 6.03372 6.23436 6.07097L6.8159 6.8028C6.83878 6.83158 6.86748 6.85521 6.90013 6.87212C6.93277 6.88904 6.96862 6.89886 7.00533 6.90096C7.04203 6.90305 7.07877 6.89737 7.11312 6.88427C7.14748 6.87118 7.17868 6.85097 7.20468 6.82498L8.90876 5.12087C8.93821 5.09139 8.97742 5.07518 9.01913 5.07518C9.06085 5.07518 9.09998 5.09142 9.12944 5.12084C9.15868 5.15014 9.1751 5.18984 9.1751 5.23124C9.17511 5.27263 9.1587 5.31234 9.12947 5.34165L7.09545 7.37567C7.08116 7.39024 7.06409 7.40179 7.04525 7.40963C7.0264 7.41748 7.00618 7.42145 6.98577 7.42133C6.96042 7.42152 6.93542 7.4155 6.91293 7.40381C6.89045 7.39211 6.87117 7.3751 6.85677 7.35424C6.85369 7.34982 6.85047 7.3455 6.84712 7.34129L5.99131 6.26432C5.96574 6.23205 5.95399 6.19097 5.95865 6.15007C5.96331 6.10916 5.98399 6.07177 6.01617 6.04608ZM7.37412 2.14951V0.92743C7.37412 0.858228 7.40161 0.791861 7.45055 0.742927C7.49948 0.693994 7.56585 0.666504 7.63505 0.666504C7.70425 0.666504 7.77062 0.693994 7.81955 0.742927C7.86848 0.791861 7.89597 0.858228 7.89597 0.92743V2.14951C7.89597 2.21871 7.86848 2.28508 7.81955 2.33401C7.77062 2.38295 7.70425 2.41044 7.63505 2.41044C7.56585 2.41044 7.49948 2.38295 7.45055 2.33401C7.40161 2.28508 7.37412 2.21871 7.37412 2.14951ZM4.73945 1.7364C4.70485 1.67647 4.69548 1.60524 4.71339 1.5384C4.7313 1.47155 4.77504 1.41456 4.83497 1.37996C4.8949 1.34536 4.96613 1.33598 5.03297 1.35389C5.09982 1.37181 5.15681 1.41554 5.19141 1.47547L5.80243 2.53382C5.83703 2.59376 5.84641 2.66498 5.8285 2.73182C5.81059 2.79867 5.76685 2.85566 5.70692 2.89026C5.64699 2.92486 5.57576 2.93424 5.50892 2.91633C5.44207 2.89841 5.38508 2.85468 5.35048 2.79475L4.73945 1.7364ZM2.76675 3.39791C2.78388 3.36823 2.80669 3.34222 2.83387 3.32135C2.86106 3.30049 2.89208 3.28519 2.92518 3.27632C2.95828 3.26745 2.9928 3.26519 3.02678 3.26967C3.06075 3.27415 3.09351 3.28527 3.12318 3.30241L4.18153 3.91344C4.24097 3.94828 4.28421 4.00523 4.30182 4.07184C4.31944 4.13845 4.30998 4.20933 4.27553 4.269C4.24108 4.32867 4.18443 4.37229 4.11793 4.39034C4.05144 4.4084 3.9805 4.39942 3.9206 4.36536L2.86225 3.75434C2.80233 3.71973 2.7586 3.66274 2.74069 3.5959C2.72278 3.52906 2.73215 3.45784 2.76675 3.39791ZM1.98463 6.17958C1.98463 6.11038 2.01212 6.04401 2.06105 5.99508C2.10998 5.94614 2.17635 5.91865 2.24555 5.91865H3.4676C3.61173 5.91865 3.72853 6.03548 3.72853 6.17958C3.72853 6.32368 3.61173 6.44051 3.4676 6.44051H2.24555C2.17635 6.44051 2.10998 6.41302 2.06105 6.36408C2.01212 6.31515 1.98463 6.24878 1.98463 6.17958ZM9.44927 2.60248L10.0603 1.54413C10.0774 1.51445 10.1002 1.48844 10.1274 1.46757C10.1546 1.44671 10.1856 1.43141 10.2187 1.42254C10.2518 1.41367 10.2863 1.41141 10.3203 1.41589C10.3543 1.42036 10.387 1.43149 10.4167 1.44863C10.4464 1.46576 10.4724 1.48857 10.4933 1.51575C10.5141 1.54293 10.5294 1.57396 10.5383 1.60706C10.5472 1.64015 10.5494 1.67467 10.545 1.70865C10.5405 1.74262 10.5294 1.77538 10.5122 1.80506L9.90119 2.8634C9.88406 2.89309 9.86126 2.91911 9.83407 2.93997C9.80688 2.96084 9.77585 2.97614 9.74275 2.98501C9.70965 2.99388 9.67512 2.99614 9.64114 2.99166C9.60717 2.98718 9.57441 2.97605 9.54473 2.9589C9.48481 2.9243 9.44109 2.8673 9.42319 2.80046C9.40528 2.73362 9.41466 2.6624 9.44927 2.60248ZM10.9244 4.38881C10.8898 4.32888 10.8804 4.25766 10.8983 4.19082C10.9163 4.12398 10.96 4.06699 11.0199 4.03239L12.0783 3.42136C12.1382 3.38731 12.2091 3.37833 12.2756 3.39638C12.3421 3.41443 12.3987 3.45805 12.4332 3.51772C12.4676 3.57739 12.4771 3.64827 12.4595 3.71488C12.4419 3.7815 12.3986 3.83844 12.3392 3.87329L11.2808 4.48431C11.2512 4.50146 11.2184 4.51259 11.1844 4.51707C11.1505 4.52156 11.1159 4.5193 11.0828 4.51043C11.0497 4.50156 11.0187 4.48625 10.9915 4.46539C10.9643 4.44452 10.9415 4.4185 10.9244 4.38881ZM11.6651 6.056H12.8872C13.0313 6.056 13.1481 6.17283 13.1481 6.31693C13.1481 6.46102 13.0313 6.57785 12.8872 6.57785H11.6651C11.5959 6.57785 11.5296 6.55036 11.4806 6.50143C11.4317 6.45249 11.4042 6.38613 11.4042 6.31693C11.4042 6.24772 11.4317 6.18136 11.4806 6.13242C11.5296 6.08349 11.5959 6.056 11.6651 6.056Z" fill="#51645F"/>
</g>
</svg>
