<svg width="20" height="20" viewBox="0 0 20 20" fill="none" xmlns="http://www.w3.org/2000/svg">
<path d="M10.0787 8.49225V3.04582C10.0787 2.9892 10.0638 2.93357 10.0355 2.88453C10.0071 2.8355 9.96642 2.79478 9.91739 2.76647L5.20063 0.0432487C5.1516 0.0149166 5.09597 0 5.03934 0C4.98271 0 4.92708 0.0149166 4.87805 0.0432487L0.16129 2.76647C0.11225 2.79477 0.0715267 2.83549 0.0432141 2.88453C0.0149015 2.93357 -2.64813e-06 2.9892 3.52918e-10 3.04582V8.49225C1.43881e-06 8.54888 0.0149073 8.6045 0.0432195 8.65354C0.0715317 8.70257 0.112253 8.7433 0.16129 8.77161L4.87805 11.4948C4.92708 11.5231 4.98271 11.5381 5.03934 11.5381C5.09597 11.5381 5.1516 11.5231 5.20063 11.4948L9.91739 8.77161C9.96643 8.7433 10.0071 8.70258 10.0355 8.65354C10.0638 8.6045 10.0787 8.54888 10.0787 8.49225ZM5.03934 0.695061L9.11094 3.04582L8.08167 3.64005L4.01003 1.28937L5.03934 0.695061ZM5.03934 5.39658L0.967739 3.04586L1.99705 2.45155L6.06865 4.80231L5.03934 5.39658ZM6.71377 4.42985L2.64221 2.07909L3.36491 1.66183L7.43655 4.01255L6.71377 4.42985ZM7.75905 4.57126V5.97101L7.03635 6.38827V4.98856L7.75905 4.57126ZM0.645159 3.60453L4.71676 5.95529V10.6568L0.645159 8.306V3.60453ZM5.36192 10.6568V5.95529L6.39119 5.36101V6.94698C6.39119 7.0036 6.4061 7.05923 6.43441 7.10826C6.46272 7.1573 6.50344 7.19802 6.55248 7.22633C6.60152 7.25464 6.65715 7.26955 6.71377 7.26955C6.77039 7.26955 6.82602 7.25464 6.87506 7.22633L8.24292 6.43661C8.29196 6.40831 8.33268 6.36759 8.36099 6.31855C8.38931 6.26951 8.40421 6.21388 8.40421 6.15726V4.1988L9.43348 3.60453V8.306L5.36192 10.6568ZM19.8386 11.2284L15.1219 8.5052C15.0729 8.47686 15.0172 8.46195 14.9606 8.46195C14.904 8.46195 14.8483 8.47686 14.7993 8.5052L10.0825 11.2284C10.0335 11.2567 9.99278 11.2974 9.96447 11.3465C9.93616 11.3955 9.92126 11.4511 9.92126 11.5078V16.9542C9.92126 17.0108 9.93616 17.0665 9.96448 17.1155C9.99279 17.1645 10.0335 17.2052 10.0825 17.2336L14.7993 19.9567C14.8483 19.9851 14.904 20 14.9606 20C15.0172 20 15.0729 19.9851 15.1219 19.9567L19.8386 17.2336C19.8877 17.2052 19.9284 17.1645 19.9567 17.1155C19.985 17.0665 19.9999 17.0108 19.9999 16.9542V11.5078C19.9999 11.4511 19.985 11.3955 19.9567 11.3465C19.9284 11.2974 19.8877 11.2567 19.8386 11.2284ZM14.9606 9.15701L19.0322 11.5078L18.0029 12.102L13.9313 9.75128L14.9606 9.15701ZM14.9606 13.8585L10.889 11.5078L11.9183 10.9135L15.9899 13.2642L14.9606 13.8585ZM16.6351 12.8918L12.5635 10.541L13.2862 10.1237L17.3578 12.4745L16.6351 12.8918ZM16.9576 13.4505L17.6803 13.0332V14.433L16.9576 14.8502V13.4505ZM10.5664 12.0665L14.638 14.4172V19.1187L10.5664 16.768V12.0665ZM15.2832 19.1187V14.4172L16.3124 13.8229V15.4089C16.3124 15.4655 16.3274 15.5211 16.3557 15.5702C16.384 15.6192 16.4247 15.6599 16.4737 15.6882C16.5228 15.7166 16.5784 15.7315 16.635 15.7315C16.6917 15.7315 16.7473 15.7165 16.7963 15.6882L18.1642 14.8985C18.2132 14.8702 18.2539 14.8295 18.2822 14.7805C18.3106 14.7314 18.3255 14.6758 18.3255 14.6192V12.6607L19.3548 12.0665V16.768L15.2832 19.1187ZM13.2551 5.86238C13.2992 5.90251 13.3535 5.92965 13.4121 5.94078C13.4707 5.95192 13.5312 5.94661 13.5869 5.92545C13.6426 5.90428 13.6914 5.8681 13.7278 5.8209C13.7642 5.7737 13.7868 5.71734 13.7932 5.65807L13.8502 5.12226C14.9343 5.35162 17.0541 6.23355 17.3111 7.99012C17.3223 8.06679 17.3607 8.13688 17.4194 8.18754C17.478 8.2382 17.5529 8.26605 17.6304 8.266C17.6901 8.26598 17.7487 8.24939 17.7995 8.21807C17.8503 8.18676 17.8915 8.14194 17.9184 8.08863C18.3835 7.16556 18.3257 6.04057 17.7598 5.00202C17.0611 3.71989 15.7163 2.82546 14.1224 2.56699L14.1787 2.03788C14.1852 1.97685 14.1742 1.91522 14.1469 1.86024C14.1196 1.80526 14.0772 1.75921 14.0247 1.7275C13.9721 1.69578 13.9116 1.67972 13.8502 1.68121C13.7889 1.68269 13.7292 1.70165 13.6783 1.73586L11.1679 3.41957C11.0856 3.47473 11.0332 3.56473 11.0259 3.66356C11.0186 3.76239 11.0571 3.85912 11.1303 3.9259L13.2551 5.86238ZM13.464 2.65634L13.4475 2.81074C13.4385 2.89581 13.4636 2.981 13.5173 3.04756C13.5711 3.11412 13.6491 3.1566 13.7341 3.16566C15.2565 3.32775 16.5496 4.12965 17.1933 5.31073C17.4685 5.81585 17.5993 6.34117 17.5828 6.83766C17.2635 6.27323 16.757 5.7669 16.0805 5.34255C15.1593 4.76452 14.1683 4.48876 13.5998 4.42819C13.5147 4.41914 13.4295 4.44424 13.3629 4.49799C13.2964 4.55174 13.2539 4.62973 13.2448 4.71481L13.2191 4.95658L11.869 3.7261L13.464 2.65634ZM6.74482 14.1376C6.70074 14.0975 6.64641 14.0703 6.58784 14.0592C6.52927 14.048 6.46877 14.0533 6.41303 14.0745C6.3573 14.0957 6.30852 14.1318 6.2721 14.1791C6.23569 14.2263 6.21307 14.2826 6.20675 14.3419L6.1497 14.8777C5.06563 14.6484 2.94588 13.7664 2.68882 12.0099C2.6789 11.942 2.64762 11.8791 2.59951 11.8302C2.5514 11.7814 2.48897 11.7491 2.42128 11.7382C2.35359 11.7272 2.28416 11.738 2.22307 11.7692C2.16197 11.8003 2.1124 11.8501 2.08157 11.9114C1.61641 12.8345 1.67419 13.9595 2.24015 14.998C2.93886 16.2801 4.28362 17.1746 5.8776 17.4331L5.82127 17.9621C5.81477 18.0232 5.82581 18.0848 5.8531 18.1398C5.88039 18.1947 5.92279 18.2408 5.97534 18.2725C6.02788 18.3042 6.08838 18.3202 6.14974 18.3188C6.21109 18.3173 6.27075 18.2984 6.32171 18.2642L8.83207 16.5805C8.91441 16.5253 8.96674 16.4353 8.97408 16.3365C8.98142 16.2376 8.94291 16.1409 8.86969 16.0741L6.74482 14.1376ZM6.53595 17.3436L6.5524 17.1893C6.56146 17.1042 6.53635 17.019 6.4826 16.9525C6.42885 16.8859 6.35086 16.8434 6.26579 16.8344C4.74345 16.6722 3.45035 15.8703 2.80668 14.6892C2.5314 14.1841 2.4006 13.6588 2.41713 13.1623C2.7364 13.7268 3.24297 14.2331 3.91942 14.6574C4.84071 15.2355 5.83159 15.5112 6.40018 15.5718C6.5774 15.5903 6.73623 15.4623 6.7551 15.2852L6.78082 15.0434L8.13098 16.2739L6.53595 17.3436Z" fill="#1665D8"/>
</svg>
