<svg width="16" height="18" viewBox="0 0 16 18" fill="none" xmlns="http://www.w3.org/2000/svg">
<g id="Setting">
<path id="Path_33946" fill-rule="evenodd" clip-rule="evenodd" d="M15.1069 5.12112L14.5882 4.22104C14.1494 3.45944 13.177 3.19671 12.4143 3.6337V3.6337C12.0513 3.84756 11.6181 3.90823 11.2103 3.80235C10.8025 3.69646 10.4535 3.4327 10.2404 3.06925C10.1033 2.83823 10.0296 2.5751 10.0268 2.30647V2.30647C10.0392 1.87579 9.87672 1.45844 9.5764 1.1495C9.27608 0.840554 8.86349 0.666326 8.43263 0.666504H7.38763C6.96552 0.666499 6.56081 0.834702 6.26305 1.13389C5.96529 1.43309 5.79903 1.8386 5.80105 2.26071V2.26071C5.78854 3.13221 5.07845 3.83212 4.20685 3.83203C3.93822 3.82924 3.67509 3.75556 3.44407 3.61845V3.61845C2.68143 3.18145 1.70897 3.44419 1.27016 4.20579L0.713335 5.12112C0.275054 5.88177 0.534213 6.85361 1.29304 7.29503V7.29503C1.7863 7.57981 2.09016 8.1061 2.09016 8.67566C2.09016 9.24522 1.7863 9.77151 1.29304 10.0563V10.0563C0.535176 10.4947 0.275735 11.4642 0.713335 12.2226V12.2226L1.23965 13.1303C1.44525 13.5013 1.79022 13.775 2.19821 13.891C2.6062 14.0069 3.04358 13.9555 3.41356 13.7481V13.7481C3.77728 13.5359 4.2107 13.4777 4.6175 13.5866C5.02429 13.6955 5.37074 13.9623 5.57985 14.3278C5.71696 14.5589 5.79064 14.822 5.79343 15.0906V15.0906C5.79343 15.9711 6.50718 16.6848 7.38763 16.6848H8.43263C9.31012 16.6848 10.0226 15.9757 10.0268 15.0982V15.0982C10.0248 14.6748 10.1921 14.2681 10.4915 13.9687C10.7909 13.6693 11.1976 13.502 11.621 13.504C11.889 13.5112 12.1511 13.5846 12.3838 13.7176V13.7176C13.1445 14.1559 14.1163 13.8967 14.5577 13.1379V13.1379L15.1069 12.2226C15.3195 11.8577 15.3779 11.4231 15.269 11.0151C15.1602 10.6071 14.8933 10.2592 14.5272 10.0487V10.0487C14.1612 9.83807 13.8942 9.49026 13.7854 9.08223C13.6766 8.6742 13.7349 8.23962 13.9475 7.87474C14.0857 7.63339 14.2859 7.43327 14.5272 7.29503V7.29503C15.2815 6.85385 15.5401 5.88768 15.1069 5.12875V5.12875V5.12112Z" stroke="#51645F" stroke-linecap="round" stroke-linejoin="round"/>
<ellipse id="Ellipse_737" cx="7.91396" cy="8.6758" rx="2.1968" ry="2.1968" stroke="#51645F" stroke-linecap="round" stroke-linejoin="round"/>
</g>
</svg>
