<svg width="18" height="18" viewBox="0 0 18 18" fill="none" xmlns="http://www.w3.org/2000/svg">
<g id="Group">
<path id="Vector" d="M1.50002 5.11095V12.8887C1.50002 13.1097 1.58782 13.3217 1.7441 13.478C1.90038 13.6343 2.11234 13.7221 2.33336 13.7221H10.6503C10.32 14.1115 10.1301 14.6006 10.1111 15.1109V16.7776C10.1111 16.925 10.1697 17.0663 10.2739 17.1705C10.378 17.2746 10.5193 17.3332 10.6667 17.3332H16.7778C16.9251 17.3332 17.0665 17.2746 17.1706 17.1705C17.2748 17.0663 17.3334 16.925 17.3334 16.7776V15.1109C17.3334 14.2423 16.6667 13.3332 15.7047 12.8384C15.8062 12.6722 15.8752 12.4882 15.9078 12.2962L15.9634 11.9612C16.1193 11.9104 16.2552 11.8115 16.3516 11.6787C16.448 11.546 16.5 11.3861 16.5 11.2221V10.0884C16.4993 9.66053 16.3984 9.23872 16.2055 8.85675C16.0125 8.47479 15.7329 8.14328 15.3889 7.88873V5.11095C15.6099 5.11095 15.8219 5.02315 15.9782 4.86687C16.1344 4.71059 16.2222 4.49863 16.2222 4.27762V3.67428C16.2226 3.56481 16.2011 3.45636 16.1592 3.35522C16.1173 3.25409 16.0557 3.16228 15.9781 3.08512L13.885 0.992059C13.6763 0.784288 13.394 0.667294 13.0995 0.666504L3.78947 0.666504C3.49495 0.667294 3.21265 0.784288 3.00391 0.992059L0.910857 3.08512C0.833197 3.16228 0.771626 3.25409 0.729713 3.35522C0.6878 3.45636 0.666379 3.56481 0.66669 3.67428V4.27762C0.66669 4.49863 0.754488 4.71059 0.910768 4.86687C1.06705 5.02315 1.27901 5.11095 1.50002 5.11095ZM1.22225 4.27762V3.72206H3.72225V4.55539H1.50002C1.42635 4.55539 1.3557 4.52613 1.30361 4.47403C1.25151 4.42194 1.22225 4.35129 1.22225 4.27762ZM10.3889 4.55539V3.72206H12.6111V4.55539H10.3889ZM9.83336 3.72206V4.55539H7.05558V3.72206H9.83336ZM10.3111 3.1665L9.66308 1.22206H11.0736L12.37 3.1665H10.3111ZM9.72586 3.1665H7.16308L7.81113 1.22206H9.0778L9.72586 3.1665ZM6.5778 3.1665H4.51891L5.8153 1.22206H7.22586L6.5778 3.1665ZM6.50002 3.72206V4.55539H4.2778V3.72206H6.50002ZM6.50002 13.1665H3.16669V7.05539C3.16669 6.98172 3.19596 6.91107 3.24805 6.85897C3.30014 6.80688 3.3708 6.77762 3.44447 6.77762H6.22225C6.29592 6.77762 6.36657 6.80688 6.41866 6.85897C6.47076 6.91107 6.50002 6.98172 6.50002 7.05539V13.1665ZM12.1281 13.2668C12.1481 13.2818 12.167 13.2976 12.1878 13.3115C12.2339 13.3426 12.2825 13.3773 12.3345 13.4137C12.5889 13.6066 12.8668 13.7663 13.1617 13.8887L12.6978 14.3523C12.6747 14.3751 12.6436 14.3878 12.6111 14.3878C12.5787 14.3878 12.5476 14.3751 12.5245 14.3523L11.6861 13.5154C11.8259 13.4198 11.9738 13.3366 12.1281 13.2668ZM15.2564 13.3115C15.2772 13.2976 15.2964 13.2815 15.3164 13.2668C15.4707 13.3371 15.6186 13.4208 15.7584 13.5168L14.92 14.3548C14.8969 14.3776 14.8658 14.3903 14.8334 14.3903C14.8009 14.3903 14.7698 14.3776 14.7467 14.3548L14.2828 13.8887C14.578 13.7664 14.8564 13.6067 15.1111 13.4137C15.162 13.3773 15.2106 13.3426 15.2564 13.3115ZM13.3153 14.8332L13.1909 14.6462L13.7222 14.1148L14.2536 14.6462L14.1292 14.8332H13.3153ZM13.4078 15.3887H14.0367L14.2353 16.7776H13.2092L13.4078 15.3887ZM10.6667 15.1109C10.6981 14.6378 10.9096 14.1947 11.2575 13.8726L12.1314 14.7465C12.1944 14.8094 12.2692 14.8593 12.3516 14.8932C12.4339 14.9272 12.5221 14.9445 12.6111 14.9443C12.6461 14.9437 12.6809 14.9404 12.7153 14.9346L12.8767 15.1762L12.6478 16.7776H10.6667V15.1109ZM16.7778 15.1109V16.7776H14.7967L14.5678 15.1765L14.7292 14.9348C14.7636 14.9406 14.7984 14.9438 14.8334 14.9443C14.9224 14.9445 15.0106 14.9271 15.093 14.8931C15.1753 14.8591 15.2501 14.8092 15.3131 14.7462L16.187 13.8723C16.535 14.1945 16.7464 14.6377 16.7778 15.1109ZM15.7222 11.4443C15.6565 11.4443 15.593 11.4676 15.5428 11.5101C15.4927 11.5525 15.4592 11.6114 15.4484 11.6762L15.36 12.204C15.3382 12.3341 15.2902 12.4584 15.219 12.5694C15.1479 12.6805 15.0549 12.776 14.9459 12.8501C14.897 12.8832 14.8447 12.9201 14.7897 12.959C14.4839 13.1757 14.1031 13.4443 13.7222 13.4443C13.3414 13.4443 12.9606 13.1757 12.6547 12.9598C12.5992 12.9209 12.5475 12.884 12.4984 12.8509C12.3893 12.7767 12.2964 12.6812 12.2253 12.5701C12.1542 12.459 12.1063 12.3347 12.0845 12.2046L11.9961 11.6768C11.9854 11.6119 11.952 11.5529 11.9018 11.5103C11.8517 11.4677 11.788 11.4443 11.7222 11.4443C11.6633 11.4443 11.6068 11.4209 11.5651 11.3792C11.5234 11.3375 11.5 11.281 11.5 11.2221C11.5 11.1631 11.5234 11.1066 11.5651 11.0649C11.6068 11.0233 11.6633 10.9998 11.7222 10.9998C11.7959 10.9998 11.8666 10.9706 11.9187 10.9185C11.9708 10.8664 12 10.7957 12 10.7221C12 10.5332 12.1036 10.3643 12.2314 10.3462C12.7572 10.2797 13.2635 10.105 13.7184 9.83317C14.1765 10.1043 14.6853 10.279 15.2134 10.3465C15.3409 10.3646 15.4445 10.5334 15.4445 10.7223C15.4445 10.796 15.4737 10.8667 15.5258 10.9188C15.5779 10.9708 15.6486 11.0001 15.7222 11.0001C15.7812 11.0001 15.8377 11.0235 15.8794 11.0652C15.9211 11.1069 15.9445 11.1634 15.9445 11.2223C15.9445 11.2813 15.9211 11.3378 15.8794 11.3795C15.8377 11.4211 15.7812 11.4443 15.7222 11.4443ZM13.7222 7.33317C12.9888 7.33103 12.2844 7.61991 11.7636 8.13644C11.2429 8.65298 10.9483 9.35498 10.9445 10.0884V10.3887H8.44447C8.3708 10.3887 8.30014 10.3595 8.24805 10.3074C8.19596 10.2553 8.16669 10.1846 8.16669 10.1109V7.05539C8.16669 6.98172 8.19596 6.91107 8.24805 6.85897C8.30014 6.80688 8.3708 6.77762 8.44447 6.77762H13.4445C13.5181 6.77762 13.5888 6.80688 13.6409 6.85897C13.693 6.91107 13.7222 6.98172 13.7222 7.05539V7.33317ZM15.9445 10.0884V10.3887C15.9013 10.2393 15.8173 10.1048 15.702 10.0003C15.5868 9.89578 15.4447 9.82542 15.2917 9.79706C14.8409 9.74055 14.4062 9.59324 14.0139 9.364C13.9269 9.30822 13.8256 9.27856 13.7222 9.27856C13.6189 9.27856 13.5176 9.30822 13.4306 9.364C13.0383 9.59333 12.6036 9.74075 12.1528 9.79734C11.9999 9.82567 11.8578 9.89599 11.7425 10.0004C11.6272 10.1049 11.5433 10.2393 11.5 10.3887V10.0884C11.5 9.49908 11.7342 8.93385 12.1509 8.5171C12.5676 8.10035 13.1329 7.86623 13.7222 7.86623C14.3116 7.86623 14.8768 8.10035 15.2936 8.5171C15.7103 8.93385 15.9445 9.49908 15.9445 10.0884ZM14.8334 7.56484C14.6549 7.48673 14.4687 7.4277 14.2778 7.38873V7.05539C14.2778 6.83438 14.19 6.62242 14.0337 6.46614C13.8774 6.30986 13.6655 6.22206 13.4445 6.22206H8.44447C8.22345 6.22206 8.01149 6.30986 7.85521 6.46614C7.69893 6.62242 7.61113 6.83438 7.61113 7.05539V10.1109C7.61113 10.332 7.69893 10.5439 7.85521 10.7002C8.01149 10.8565 8.22345 10.9443 8.44447 10.9443H10.9445V11.2221C10.9445 11.3861 10.9964 11.5458 11.0926 11.6786C11.1889 11.8113 11.3247 11.9103 11.4806 11.9612L11.5361 12.2946C11.5687 12.4867 11.6377 12.6708 11.7392 12.8371C11.5569 12.9312 11.3835 13.0415 11.2209 13.1665H7.05558V7.05539C7.05558 6.83438 6.96778 6.62242 6.8115 6.46614C6.65522 6.30986 6.44326 6.22206 6.22225 6.22206H3.44447C3.22345 6.22206 3.01149 6.30986 2.85521 6.46614C2.69893 6.62242 2.61113 6.83438 2.61113 7.05539V13.1665H2.33336C2.25969 13.1665 2.18903 13.1372 2.13694 13.0851C2.08485 13.0331 2.05558 12.9624 2.05558 12.8887V5.11095H14.8334V7.56484ZM15.3889 4.55539H13.1667V3.72206H15.6667V4.27762C15.6667 4.35129 15.6374 4.42194 15.5853 4.47403C15.5332 4.52613 15.4626 4.55539 15.3889 4.55539ZM13.4922 1.38484L15.2739 3.1665H13.0375L11.7411 1.22206H13.0995C13.2467 1.22254 13.3878 1.28103 13.4922 1.38484ZM3.39669 1.38484C3.50111 1.28103 3.64223 1.22254 3.78947 1.22206H5.1478L3.85141 3.1665H1.61502L3.39669 1.38484Z" fill="#51645F"/>
</g>
</svg>
