<svg width="13" height="18" viewBox="0 0 13 18" fill="none" xmlns="http://www.w3.org/2000/svg">
<g id="Group">
<path id="Vector" d="M2.08398 13.0496H5.89029V14.5406H2.08398V13.0496ZM8.59844 2.58398H10.12V8.31374H8.59844V2.58398Z" fill="url(#paint0_linear_128_552)"/>
<path id="Vector_2" d="M11.6704 0.666504H0.53295C0.484826 0.666499 0.437173 0.675974 0.392711 0.694387C0.348249 0.712801 0.307851 0.739793 0.273822 0.773822C0.239793 0.807851 0.212801 0.848249 0.194387 0.892711C0.175974 0.937173 0.166499 0.984826 0.166504 1.03295V16.0914C0.166499 16.1395 0.175974 16.1871 0.194387 16.2316C0.212801 16.2761 0.239793 16.3165 0.273822 16.3505C0.307851 16.3845 0.348249 16.4115 0.392711 16.4299C0.437173 16.4483 0.484826 16.4578 0.53295 16.4578H1.29078V17.3332H2.02371V16.4578H10.1799V17.3332H10.9128V16.4578H11.6707C11.7188 16.4578 11.7664 16.4484 11.8109 16.43C11.8554 16.4115 11.8958 16.3846 11.9298 16.3505C11.9638 16.3165 11.9908 16.2761 12.0092 16.2316C12.0276 16.1872 12.0371 16.1395 12.0371 16.0914V1.03295C12.0369 0.830433 11.8727 0.666504 11.6704 0.666504ZM6.62306 14.907C6.62307 14.9551 6.61359 15.0027 6.59518 15.0472C6.57676 15.0917 6.54977 15.1321 6.51574 15.1661C6.48172 15.2001 6.44132 15.2271 6.39686 15.2455C6.35239 15.2639 6.30474 15.2734 6.25662 15.2734H1.71734C1.66922 15.2734 1.62156 15.2639 1.5771 15.2455C1.53264 15.2271 1.49224 15.2001 1.45821 15.1661C1.42418 15.1321 1.39719 15.0917 1.37878 15.0472C1.36036 15.0027 1.35089 14.9551 1.35089 14.907V12.683C1.35089 12.6349 1.36036 12.5873 1.37878 12.5428C1.39719 12.4983 1.42418 12.4579 1.45821 12.4239C1.49224 12.3899 1.53264 12.3629 1.5771 12.3445C1.62156 12.3261 1.66922 12.3166 1.71734 12.3166H6.25658C6.3047 12.3166 6.35235 12.3261 6.39682 12.3445C6.44128 12.3629 6.48168 12.3899 6.5157 12.4239C6.54973 12.4579 6.57673 12.4983 6.59514 12.5428C6.61355 12.5873 6.62303 12.6349 6.62302 12.683L6.62306 14.907ZM6.775 11.2089H0.899396V1.39944H6.775V11.2089ZM10.486 10.4657H8.23156V9.73275H10.486V10.4657ZM10.8525 8.6798C10.8525 8.72792 10.843 8.77557 10.8246 8.82004C10.8062 8.8645 10.7792 8.9049 10.7452 8.93892C10.7111 8.97295 10.6707 8.99995 10.6263 9.01836C10.5818 9.03677 10.5342 9.04625 10.486 9.04624H8.23156C8.18344 9.04625 8.13578 9.03677 8.09132 9.01836C8.04686 8.99995 8.00646 8.97295 7.97243 8.93892C7.93841 8.9049 7.91141 8.8645 7.893 8.82004C7.87459 8.77557 7.86511 8.72792 7.86512 8.6798V2.21738C7.86511 2.16926 7.87459 2.1216 7.893 2.07714C7.91141 2.03268 7.93841 1.99228 7.97243 1.95825C8.00646 1.92422 8.04686 1.89723 8.09132 1.87882C8.13578 1.8604 8.18344 1.85093 8.23156 1.85093H10.486C10.5342 1.85093 10.5818 1.8604 10.6263 1.87882C10.6707 1.89723 10.7111 1.92422 10.7452 1.95825C10.7792 1.99228 10.8062 2.03268 10.8246 2.07714C10.843 2.1216 10.8525 2.16926 10.8525 2.21738V8.6798Z" fill="url(#paint1_linear_128_552)"/>
<path id="Vector_3" d="M6.28997 4.31547H5.62496V3.18945H4.89202V4.31547H4.20382V3.18945H3.47088V4.31547H2.78267V3.18945H2.04974V4.31547H1.38477V5.04836H6.28997V4.31547ZM6.28997 6.68425H5.62496V5.558H4.89202V6.68425H4.20382V5.558H3.47088V6.68425H2.78267V5.558H2.04974V6.68425H1.38477V7.41718H6.28997V6.68425ZM6.28997 9.05307H5.62496V7.92658H4.89202V9.05307H4.20382V7.92658H3.47088V9.05307H2.78267V7.92658H2.04974V9.05307H1.38477V9.786H6.28997V9.05307Z" fill="url(#paint2_linear_128_552)"/>
</g>
<defs>
<linearGradient id="paint0_linear_128_552" x1="5.93101" y1="11.8317" x2="10.5713" y2="10.941" gradientUnits="userSpaceOnUse">
<stop stop-color="#798f89"/>
<stop offset="1" stop-color="#798f89"/>
</linearGradient>
<linearGradient id="paint1_linear_128_552" x1="5.84924" y1="13.5572" x2="12.674" y2="12.1689" gradientUnits="userSpaceOnUse">
<stop stop-color="#798f89"/>
<stop offset="1" stop-color="#798f89"/>
</linearGradient>
<linearGradient id="paint2_linear_128_552" x1="3.733" y1="8.29147" x2="6.5431" y2="7.69466" gradientUnits="userSpaceOnUse">
<stop stop-color="#798f89"/>
<stop offset="1" stop-color="#798f89"/>
</linearGradient>
</defs>
</svg>
