<svg width="20" height="16" viewBox="0 0 20 16" fill="none" xmlns="http://www.w3.org/2000/svg">
<g id="Show">
<path id="Stroke 1" fill-rule="evenodd" clip-rule="evenodd" d="M13.1614 8.05311C13.1614 9.79911 11.7454 11.2141 9.99938 11.2141C8.25338 11.2141 6.83838 9.79911 6.83838 8.05311C6.83838 6.30611 8.25338 4.89111 9.99938 4.89111C11.7454 4.89111 13.1614 6.30611 13.1614 8.05311Z" stroke="url(#paint0_linear_625_4222)" stroke-linecap="round" stroke-linejoin="round"/>
<path id="Stroke 3" fill-rule="evenodd" clip-rule="evenodd" d="M9.998 15.3549C13.806 15.3549 17.289 12.6169 19.25 8.05292C17.289 3.48892 13.806 0.750916 9.998 0.750916H10.002C6.194 0.750916 2.711 3.48892 0.75 8.05292C2.711 12.6169 6.194 15.3549 10.002 15.3549H9.998Z" stroke="url(#paint1_linear_625_4222)" stroke-linecap="round" stroke-linejoin="round"/>
</g>
<defs>
<linearGradient id="paint0_linear_625_4222" x1="9.86535" y1="9.78156" x2="13.3655" y2="8.78187" gradientUnits="userSpaceOnUse">
<stop stop-color="#027752"/>
<stop offset="1" stop-color="#23A684"/>
</linearGradient>
<linearGradient id="paint1_linear_625_4222" x1="9.60638" y1="12.0462" x2="19.4006" y2="8.50259" gradientUnits="userSpaceOnUse">
<stop stop-color="#027752"/>
<stop offset="1" stop-color="#23A684"/>
</linearGradient>
</defs>
</svg>
